<?xml version="1.0" standalone="no"?>
<!DOCTYPE svg PUBLIC "-//W3C//DTD SVG 20010904//EN"
 "http://www.w3.org/TR/2001/REC-SVG-20010904/DTD/svg10.dtd">
<svg version="1.0" xmlns="http://www.w3.org/2000/svg"
 width="1000.000000pt" height="1000.000000pt" viewBox="0 0 1000.000000 1000.000000"
 preserveAspectRatio="xMidYMid meet">
<metadata>
Created by potrace 1.11, written by Peter Selinger 2001-2013
</metadata>
<g transform="translate(0.000000,1000.000000) scale(0.100000,-0.100000)"
fill="#000000" stroke="none">
<path d="M1133 9443 c2 -33 -1 -53 -7 -53 -6 0 -5 -4 3 -9 10 -7 10 -10 1 -13
-10 -3 -10 -9 -1 -26 7 -14 8 -22 2 -22 -6 0 -7 -7 -4 -17 5 -12 3 -14 -7 -8
-10 6 -11 4 -4 -6 14 -23 15 -49 1 -49 -8 0 -8 -3 2 -9 12 -8 12 -12 2 -24 -8
-11 -9 -17 -1 -22 8 -5 8 -10 0 -20 -8 -10 -8 -15 0 -20 8 -5 8 -11 -1 -21 -9
-11 -9 -14 1 -14 10 0 10 -4 -1 -16 -10 -13 -10 -17 2 -25 8 -5 9 -9 4 -9 -6
0 -11 -9 -12 -20 -1 -13 2 -18 10 -13 7 4 6 0 -2 -10 -11 -14 -11 -20 0 -34
12 -14 12 -16 0 -8 -11 6 -13 4 -8 -8 4 -10 2 -17 -5 -17 -7 0 -6 -5 2 -15 10
-12 10 -15 -1 -15 -11 0 -11 -2 1 -10 8 -5 11 -10 5 -10 -10 0 -11 -81 -1
-107 4 -9 1 -11 -6 -7 -7 5 -9 -1 -4 -20 4 -18 2 -26 -6 -26 -8 0 -9 -3 -3 -8
12 -8 13 -32 2 -49 -5 -8 -3 -13 5 -13 9 0 9 -3 -2 -10 -13 -9 -13 -10 0 -10
13 0 13 -1 0 -10 -11 -7 -11 -10 -2 -10 7 0 10 -5 7 -10 -12 -19 -12 -100 -1
-100 8 0 7 -3 0 -8 -12 -8 -26 -64 -14 -57 5 3 7 -6 6 -20 0 -14 -5 -25 -9
-25 -5 0 -5 -5 -1 -12 10 -16 11 -77 0 -71 -4 3 -5 -5 -1 -17 6 -17 4 -21 -6
-14 -10 6 -10 3 1 -11 8 -10 15 -19 14 -19 -11 -14 -21 -45 -16 -51 10 -10 9
-29 -3 -37 -6 -5 -5 -8 3 -8 9 0 10 -5 2 -19 -13 -26 -13 -34 3 -25 6 4 3 -3
-7 -15 -20 -22 -20 -22 0 -15 17 7 17 6 5 -9 -10 -12 -10 -17 -2 -17 8 0 7 -6
-3 -16 -18 -17 -21 -28 -6 -19 6 3 10 2 10 -4 0 -5 -5 -13 -11 -16 -7 -5 -4
-14 8 -28 10 -11 12 -17 6 -13 -9 5 -13 -1 -13 -18 0 -13 -3 -32 -7 -42 -4
-10 -2 -15 3 -11 12 7 11 -40 -1 -50 -4 -5 -5 -2 0 6 6 10 4 12 -4 7 -9 -6 -9
-11 0 -23 10 -12 10 -16 -2 -24 -10 -6 -10 -9 -1 -9 14 0 12 -21 -3 -32 -6 -5
-6 -8 2 -8 12 0 12 -17 0 -37 -5 -7 -4 -13 0 -13 10 0 10 -56 0 -66 -4 -4 -1
-14 6 -22 10 -13 9 -14 -1 -8 -10 6 -12 -5 -9 -53 2 -40 0 -61 -7 -61 -6 0 -4
-5 4 -10 8 -5 11 -10 5 -10 -5 0 -10 -15 -10 -34 0 -19 3 -32 7 -29 5 2 4 -7
-1 -20 -7 -17 -6 -29 2 -37 9 -10 9 -11 -2 -5 -11 6 -13 4 -8 -8 4 -10 1 -17
-6 -17 -8 0 -7 -3 2 -9 13 -8 13 -12 0 -27 -12 -16 -12 -17 1 -9 13 8 13 7 1
-8 -10 -13 -10 -17 -1 -17 9 0 10 -3 1 -13 -8 -10 -7 -17 1 -25 9 -9 9 -12 -1
-12 -10 0 -11 -3 -2 -13 6 -8 8 -17 4 -21 -4 -3 -8 -14 -9 -22 -1 -9 0 -14 3
-11 5 5 43 -29 43 -39 0 -8 63 -64 73 -64 4 0 5 -5 2 -10 -3 -6 7 -18 24 -28
17 -9 31 -21 31 -25 0 -12 27 -37 39 -37 6 0 10 -3 9 -7 -4 -10 39 -53 53 -53
5 0 8 -3 6 -7 -5 -11 140 -152 148 -144 4 3 6 1 5 -4 -4 -17 0 -39 5 -33 9 9
65 -49 65 -66 0 -14 -4 -15 -20 -6 -11 6 -20 7 -20 3 0 -4 -5 -1 -10 7 -8 12
-10 12 -10 1 0 -11 -3 -11 -17 0 -15 12 -16 12 -8 -1 8 -13 7 -13 -8 -1 -14
11 -17 11 -17 0 0 -9 -3 -10 -8 -4 -6 10 -38 16 -104 19 -16 0 -28 5 -28 10 0
6 -5 5 -12 -2 -8 -8 -16 -8 -32 0 -11 6 -38 10 -60 10 -23 -1 -43 3 -48 10 -6
10 -8 10 -8 -1 0 -11 -3 -11 -15 -1 -12 10 -15 10 -15 -1 0 -11 -2 -11 -10 1
-9 13 -11 13 -20 0 -5 -8 -10 -10 -10 -4 0 6 -11 12 -25 12 -22 0 -25 -5 -23
-32 1 -17 6 -37 11 -44 7 -9 6 -11 -7 -6 -13 5 -15 2 -8 -16 11 -30 3 -72 -12
-63 -6 3 -2 -3 8 -15 11 -12 14 -22 8 -22 -7 0 -12 -5 -12 -11 0 -5 6 -7 13
-3 8 5 8 2 -2 -9 -7 -9 -10 -17 -6 -17 4 0 1 -8 -6 -17 -10 -11 -10 -14 -1 -9
15 9 15 5 2 -28 -6 -17 -6 -27 1 -32 6 -4 6 -11 -2 -20 -9 -11 -8 -14 2 -14
11 0 11 -2 -1 -10 -12 -8 -12 -10 -1 -10 11 0 11 -3 2 -14 -10 -11 -10 -20 -1
-37 8 -14 8 -19 1 -15 -6 4 -11 2 -11 -3 0 -6 6 -11 13 -11 8 0 8 -3 2 -8 -6
-4 -11 -31 -10 -59 0 -29 -4 -53 -9 -53 -6 0 -5 -5 1 -11 7 -7 8 -21 3 -39 -5
-18 -4 -32 3 -40 9 -10 8 -11 -7 -6 -20 7 -20 7 0 -15 10 -12 14 -19 7 -15 -9
5 -11 -3 -9 -29 3 -21 -1 -35 -8 -35 -7 0 -7 -3 -1 -8 12 -8 13 -32 2 -49 -5
-8 -3 -13 4 -13 8 0 8 -4 -2 -16 -7 -9 -9 -18 -3 -22 13 -10 17 -35 4 -27 -5
3 -10 1 -10 -4 0 -6 5 -11 12 -11 9 0 9 -3 0 -12 -8 -8 -8 -17 0 -31 8 -17 8
-19 -5 -14 -11 4 -14 2 -11 -7 10 -25 9 -106 -1 -106 -5 0 -3 -5 5 -10 11 -7
11 -10 2 -10 -9 0 -10 -5 -3 -18 5 -10 6 -24 1 -32 -4 -7 -6 -24 -4 -37 4 -18
1 -23 -8 -17 -10 6 -10 4 0 -8 11 -13 11 -21 2 -39 -11 -19 -10 -21 6 -15 17
7 17 6 -1 -14 -12 -13 -14 -20 -5 -20 9 0 10 -3 1 -13 -8 -10 -7 -17 1 -25 8
-8 9 -12 1 -12 -12 0 -12 -18 0 -36 3 -6 3 -14 0 -18 -12 -12 -12 -40 0 -55
10 -12 9 -13 -2 -6 -11 6 -13 1 -9 -24 2 -17 2 -31 -1 -31 -8 0 -6 -64 3 -78
3 -6 1 -14 -5 -18 -8 -4 -7 -9 2 -15 10 -6 11 -9 2 -9 -7 0 -13 -7 -13 -16 0
-9 5 -12 13 -8 9 5 9 4 0 -6 -6 -7 -9 -19 -6 -28 5 -11 2 -13 -8 -7 -11 6 -12
5 -2 -5 9 -9 9 -19 2 -33 -8 -15 -8 -18 1 -12 9 6 9 2 1 -14 -9 -16 -9 -21 1
-21 9 0 9 -3 -2 -10 -11 -7 -11 -10 -2 -10 8 0 10 -5 6 -12 -12 -19 -12 -48 0
-48 6 0 5 -4 -3 -9 -13 -8 -13 -12 0 -27 12 -15 12 -17 0 -9 -11 6 -13 4 -8
-8 3 -9 2 -19 -4 -23 -7 -4 -6 -10 0 -18 6 -7 9 -15 7 -17 -10 -10 -14 -109
-4 -103 6 4 2 -5 -7 -20 -16 -24 -14 -31 9 -27 5 1 4 -4 -2 -12 -7 -8 -9 -17
-5 -20 3 -4 1 -7 -7 -7 -10 0 -10 -3 0 -15 8 -9 9 -20 4 -27 -12 -16 -11 -39
1 -57 5 -10 4 -16 -4 -19 -9 -3 -9 -7 -1 -17 8 -10 8 -15 -1 -21 -8 -5 -9 -3
-4 6 5 8 4 11 -3 6 -13 -8 -5 -36 12 -36 6 0 3 -5 -7 -11 -14 -8 -16 -14 -6
-25 9 -11 9 -14 0 -14 -7 0 -9 -5 -6 -11 12 -18 13 -59 1 -59 -6 0 -4 -5 4
-10 8 -5 10 -10 5 -10 -6 0 -10 -19 -8 -45 1 -24 -2 -47 -7 -50 -6 -4 -7 -12
-3 -18 11 -18 10 -77 -2 -77 -5 0 -4 -4 4 -9 9 -6 10 -11 2 -15 -8 -5 -8 -13
-1 -26 7 -13 7 -21 0 -25 -13 -8 -9 -47 5 -57 6 -5 5 -8 -3 -8 -10 0 -12 -10
-8 -36 5 -27 3 -33 -6 -28 -9 5 -9 3 1 -9 8 -11 9 -17 2 -17 -7 0 -8 -8 -1
-25 8 -20 7 -23 -8 -19 -14 5 -13 3 2 -10 20 -16 20 -16 0 -17 -11 0 -14 -3
-6 -6 10 -4 10 -8 0 -21 -10 -12 -10 -14 -1 -8 9 5 13 1 13 -12 0 -22 23 -46
33 -35 4 3 7 -2 7 -12 0 -10 2 -16 5 -13 5 5 37 -20 101 -79 13 -12 24 -19 24
-15 0 4 5 -1 11 -10 5 -10 17 -18 25 -18 8 0 12 -4 9 -10 -3 -5 -1 -10 6 -10
6 0 20 -10 30 -22 11 -11 19 -18 19 -14 0 3 14 -7 31 -24 18 -16 36 -30 41
-30 5 0 6 -5 3 -10 -4 -6 -2 -9 3 -8 5 2 31 -15 58 -38 27 -23 54 -43 59 -44
6 -2 29 -23 53 -47 23 -24 42 -40 42 -37 0 4 7 1 15 -6 8 -7 12 -17 8 -23 -3
-5 -1 -7 4 -4 6 4 27 -9 47 -28 20 -19 39 -34 41 -35 3 0 10 0 16 0 5 0 7 -5
4 -11 -4 -6 2 -13 14 -16 11 -3 18 -9 15 -14 -3 -5 2 -9 10 -9 9 0 16 -4 16
-10 0 -5 7 -10 16 -10 8 0 12 -4 9 -10 -3 -5 -1 -10 6 -10 6 0 20 -10 30 -22
11 -11 19 -17 19 -13 0 4 8 -1 18 -11 9 -11 32 -30 50 -43 18 -12 29 -27 26
-33 -4 -6 -2 -8 3 -5 6 4 16 0 23 -8 7 -8 16 -12 21 -9 5 3 8 2 7 -3 -2 -4 1
-10 7 -13 5 -3 21 -17 36 -32 14 -15 29 -25 32 -21 4 3 7 -2 7 -12 0 -10 3
-16 6 -12 4 3 12 1 20 -6 7 -7 31 -28 54 -47 23 -19 52 -45 65 -58 13 -12 29
-22 34 -22 6 0 15 -8 20 -17 6 -10 11 -14 11 -10 0 4 16 -8 35 -28 20 -19 38
-35 42 -35 3 0 14 -10 24 -22 11 -11 19 -18 19 -14 0 4 11 -3 24 -16 14 -13
41 -36 62 -53 20 -16 45 -38 55 -47 11 -10 19 -16 19 -14 0 2 15 -10 34 -27
19 -18 46 -41 60 -52 24 -18 61 -49 118 -100 10 -8 22 -15 26 -15 4 0 14 -9
22 -19 7 -11 17 -18 22 -15 4 3 8 -3 8 -12 0 -10 3 -14 6 -11 4 3 20 -8 35
-24 16 -17 29 -28 29 -25 0 7 34 -19 72 -57 15 -15 28 -25 28 -22 0 3 12 -6
28 -20 15 -14 34 -32 43 -40 9 -8 19 -15 23 -15 13 0 35 -27 28 -35 -4 -5 -1
-5 6 -1 7 4 15 1 18 -8 3 -9 12 -16 19 -16 7 0 16 -7 19 -16 4 -9 9 -14 12
-11 8 8 34 -18 34 -33 0 -6 4 -9 9 -5 5 3 17 -5 25 -17 9 -12 16 -19 16 -14 0
5 11 -3 25 -18 13 -14 28 -26 32 -26 5 0 15 -9 23 -20 8 -11 20 -20 28 -20 7
0 10 -4 7 -10 -3 -5 0 -10 7 -10 7 0 32 -18 56 -40 23 -22 42 -38 42 -35 0 3
11 -6 25 -20 14 -14 30 -25 35 -25 6 0 10 -7 10 -15 0 -9 6 -12 17 -8 11 4 14
3 9 -5 -4 -7 -3 -12 3 -12 6 0 24 -14 41 -30 17 -17 34 -30 38 -30 4 0 14 -9
22 -19 7 -11 17 -18 22 -15 4 3 8 -2 8 -11 0 -9 5 -13 10 -10 6 3 13 -1 16 -9
3 -9 10 -16 16 -16 15 0 38 -27 30 -35 -4 -5 -2 -5 5 -1 6 3 15 1 20 -6 4 -7
20 -19 36 -27 15 -8 27 -20 27 -27 0 -7 8 -15 18 -18 9 -3 35 -23 57 -44 22
-21 48 -42 58 -45 10 -4 15 -11 12 -17 -3 -5 3 -10 14 -10 12 0 21 -6 21 -14
0 -7 13 -19 30 -26 16 -7 27 -16 24 -21 -3 -5 1 -9 9 -9 8 0 17 -7 21 -15 3
-8 12 -15 21 -15 8 0 15 -8 15 -17 0 -15 2 -16 10 -3 9 13 10 13 10 0 0 -8 18
-28 40 -43 22 -16 40 -33 40 -38 0 -5 6 -9 14 -9 8 0 17 -7 20 -16 3 -8 9 -14
13 -11 11 5 52 -40 44 -49 -3 -4 -1 -4 5 -1 6 3 24 -7 41 -22 17 -15 38 -31
47 -34 9 -4 16 -13 16 -22 0 -8 6 -15 13 -15 6 0 31 -17 54 -39 23 -21 44 -37
46 -35 1 2 22 -15 46 -36 24 -22 46 -40 50 -40 3 0 12 -9 19 -20 7 -11 17 -20
23 -20 6 0 24 -12 40 -27 16 -16 41 -38 54 -51 14 -13 25 -20 25 -17 0 3 11
-5 24 -19 13 -15 29 -26 35 -26 7 0 9 -4 6 -10 -5 -8 10 -15 18 -7 1 1 16 -13
33 -30 17 -18 34 -33 38 -33 4 0 14 -7 22 -15 9 -8 13 -15 10 -15 -3 0 3 -9
14 -20 26 -26 35 -25 35 5 0 14 -4 25 -9 25 -6 0 -1 6 10 14 11 9 23 11 30 5
14 -12 11 -49 -5 -59 -9 -5 -2 -7 17 -7 17 1 30 4 30 7 -2 20 4 30 18 30 8 0
12 4 9 10 -3 5 1 10 10 10 9 0 13 5 10 10 -3 6 0 10 7 10 7 0 31 16 53 35 51
44 73 63 120 100 21 17 50 42 66 57 15 14 30 24 33 21 2 -3 9 5 16 16 6 12 15
19 21 16 5 -4 9 1 9 10 0 9 5 13 10 10 6 -3 13 1 16 9 3 9 10 13 15 10 5 -3 9
-1 9 4 0 5 30 33 68 63 37 29 75 62 85 73 9 10 17 16 17 13 0 -7 46 32 86 72
13 13 24 20 24 15 0 -5 5 -1 11 9 6 9 15 14 21 11 7 -4 8 -2 4 5 -4 6 0 14 11
18 10 4 24 15 31 25 7 10 18 16 23 13 5 -4 9 2 9 11 0 10 3 15 6 11 4 -3 19 6
34 21 35 34 70 63 70 58 0 -3 17 11 38 30 74 68 92 83 92 78 0 -3 15 10 34 29
19 20 37 33 40 30 3 -3 8 2 12 11 3 9 12 16 20 16 8 0 14 7 14 16 0 8 4 13 9
9 6 -3 15 4 21 15 6 11 15 18 20 15 5 -3 14 3 19 14 6 11 20 23 31 26 11 4 18
11 15 16 -4 5 -1 9 6 9 6 0 21 10 33 23 12 13 28 21 35 19 8 -3 11 -1 8 4 -2
5 1 15 9 22 8 7 14 10 14 7 0 -3 8 3 18 13 11 9 17 21 14 26 -3 5 0 6 6 2 6
-3 13 -2 17 4 4 6 11 8 16 4 5 -3 8 -1 7 4 -3 8 20 29 120 110 19 15 46 38 61
52 14 14 30 26 34 27 8 3 21 13 72 58 52 47 69 60 80 64 6 2 16 12 23 22 7 11
17 19 23 19 5 0 25 16 44 35 19 20 35 35 37 33 2 -1 18 11 36 27 19 17 36 28
39 25 2 -3 11 6 18 20 8 14 14 21 15 15 0 -5 13 5 29 22 16 18 32 29 35 26 3
-4 6 -1 6 5 0 5 16 20 35 32 20 12 32 26 28 33 -4 6 0 8 10 4 12 -4 17 -1 17
10 0 9 3 14 6 10 6 -6 29 11 75 56 15 15 31 28 34 27 6 0 32 22 91 77 24 24
47 43 49 43 3 0 10 0 16 0 5 0 7 4 4 10 -3 5 0 10 8 10 8 0 17 7 21 15 3 8 17
20 31 27 14 6 25 18 25 25 0 8 5 11 10 8 6 -3 13 1 16 9 3 9 10 13 15 10 5 -3
9 0 9 6 0 6 5 8 12 4 6 -4 8 -3 4 4 -3 6 11 21 35 35 22 13 40 27 40 31 -1 3
1 6 4 6 2 0 21 16 42 35 20 18 40 32 44 29 4 -2 10 4 13 14 3 9 22 26 41 36
19 10 32 23 29 27 -3 5 4 9 16 9 12 0 18 5 15 10 -3 6 -1 10 5 10 6 0 22 11
36 25 13 13 33 29 45 35 11 6 17 15 14 21 -4 5 0 9 7 9 8 0 31 15 51 34 20 18
37 32 37 30 0 -2 16 12 37 31 20 19 41 31 47 28 6 -3 8 -3 4 2 -8 8 51 61 64
57 4 -1 8 5 8 13 0 8 3 14 8 13 4 -2 18 7 32 20 13 12 28 22 32 22 5 0 6 5 3
10 -3 6 -1 10 4 10 11 0 38 20 73 53 10 9 25 17 33 17 8 0 14 3 14 8 -4 21 3
31 16 26 8 -4 15 -1 15 5 0 6 13 19 30 30 16 10 27 21 23 24 -3 4 1 7 11 7 9
0 14 5 11 10 -3 6 0 10 7 10 12 0 26 12 110 86 16 13 28 22 28 19 0 -2 13 8
28 23 16 15 43 38 62 52 18 14 44 35 57 48 13 13 23 20 23 17 0 -6 20 11 96
81 18 17 36 29 38 26 3 -2 11 7 17 21 7 15 16 24 20 21 5 -3 5 6 0 19 -7 17
-6 28 2 36 9 9 8 10 -7 5 -16 -6 -18 -4 -13 9 4 9 10 24 13 32 3 8 2 15 -2 15
-5 0 -10 37 -11 83 -4 219 -7 275 -18 269 -5 -3 -4 1 2 9 10 12 10 18 1 27 -9
9 -9 12 1 12 11 0 11 3 1 15 -10 12 -10 15 1 15 9 0 10 3 4 8 -5 4 -10 16 -10
27 0 11 5 23 10 27 6 5 5 8 -4 8 -10 0 -11 3 -2 14 7 8 8 17 3 20 -5 3 -8 27
-8 53 1 26 -2 60 -6 76 -4 18 -3 27 5 27 7 0 6 4 -3 10 -12 8 -13 11 -1 19 7
5 9 11 4 14 -5 4 -9 16 -8 29 1 13 -3 29 -9 37 -8 11 -8 13 2 7 8 -5 12 -1 12
13 0 11 -5 23 -10 26 -8 5 -7 11 1 21 9 11 9 14 -1 14 -10 0 -10 3 0 15 9 11
9 15 1 15 -8 0 -9 5 -2 19 6 10 8 21 4 24 -3 4 -7 27 -8 51 -2 24 -6 50 -10
57 -5 8 -4 10 3 5 16 -9 15 7 0 22 -7 7 -8 12 -2 12 5 0 9 14 9 30 0 17 -4 30
-8 30 -5 0 -5 5 -2 10 4 6 1 18 -6 26 -10 12 -9 13 7 7 15 -5 17 -4 8 8 -6 8
-10 22 -9 31 2 10 -1 20 -6 24 -5 3 -6 11 -2 17 10 17 11 47 1 53 -5 3 -4 12
3 20 8 10 8 14 0 14 -13 0 -10 22 4 32 7 5 6 8 0 8 -14 0 -17 38 -4 45 5 4 6
12 2 18 -14 22 -16 38 -10 92 1 17 -1 38 -5 47 -5 10 -3 18 5 21 9 4 9 6 0 6
-7 1 -13 6 -13 12 0 5 6 7 13 3 7 -5 7 -1 -2 10 -13 15 -13 19 0 27 8 5 9 9 3
9 -7 0 -11 14 -8 35 1 20 -1 33 -5 30 -12 -7 -8 28 4 38 6 4 5 10 -4 16 -10 7
-11 13 -1 31 10 18 10 21 -2 14 -11 -6 -11 -5 0 8 9 12 10 18 2 23 -8 5 -7 11
2 23 11 13 11 14 0 8 -10 -6 -12 -1 -9 21 2 15 0 36 -5 47 -7 13 -7 16 1 12
15 -10 14 7 -1 22 -9 9 -9 12 3 12 12 0 12 2 -1 10 -13 9 -13 10 0 10 13 0 13
1 0 10 -8 5 -10 10 -5 10 6 0 11 9 11 19 0 11 -4 17 -9 14 -4 -2 -5 7 -1 21 4
18 2 26 -7 26 -9 0 -10 3 -4 8 14 9 17 52 3 52 -7 0 -7 4 0 13 7 8 7 18 2 27
-5 9 -5 19 2 27 7 9 7 13 -2 13 -9 0 -9 4 -2 13 7 8 7 18 2 27 -13 21 -12 33
2 24 7 -5 8 -3 2 7 -5 8 -7 22 -5 33 1 10 -2 15 -7 12 -6 -4 -8 2 -5 14 3 11
10 20 16 20 6 0 2 7 -9 15 -10 8 -14 15 -8 15 12 0 11 41 -1 59 -3 6 0 11 7
11 10 0 10 2 -1 9 -11 7 -11 9 0 14 8 3 9 6 3 6 -5 1 -9 16 -8 33 1 18 -3 39
-9 47 -9 12 -9 13 1 7 9 -6 12 -1 10 16 -2 12 -7 29 -12 37 -6 10 -5 12 2 7 7
-4 12 -2 12 3 0 6 -5 11 -11 11 -8 0 -8 5 1 15 10 12 10 15 0 15 -10 0 -10 3
-1 14 8 9 8 16 2 20 -7 5 -7 15 0 32 8 23 7 25 -7 20 -14 -5 -15 -4 -5 8 7 8
10 20 6 27 -4 6 -1 16 6 21 11 8 11 9 -2 5 -9 -3 -22 -1 -29 3 -8 5 -19 2 -28
-6 -10 -10 -18 -12 -26 -4 -7 5 -16 7 -19 3 -7 -7 -35 -11 -102 -15 -22 -2
-43 -7 -47 -13 -5 -6 -11 -6 -16 2 -5 7 -13 9 -21 3 -8 -4 -21 -6 -29 -2 -11
4 -13 1 -7 -9 5 -8 -2 -5 -14 5 -15 14 -20 15 -16 5 4 -12 -3 -14 -35 -12 -22
1 -38 -1 -36 -5 2 -4 -4 -8 -14 -8 -10 0 -17 3 -14 7 5 9 -23 5 -32 -4 -4 -4
-21 -7 -38 -6 -17 0 -25 3 -18 6 6 2 10 9 6 14 -3 5 2 9 10 9 9 0 16 5 16 10
0 6 7 10 15 10 8 0 14 3 13 8 -2 4 43 53 98 109 56 57 99 105 96 108 -3 3 -1
5 5 5 14 0 93 77 93 90 0 5 3 10 8 10 11 0 142 129 142 140 0 6 4 10 9 10 6 0
6 12 1 28 -4 16 -4 36 2 45 5 10 5 17 0 17 -5 0 -7 14 -4 30 2 17 -1 36 -7 44
-9 11 -9 16 0 22 8 5 9 3 4 -6 -5 -9 -4 -11 4 -6 9 6 9 13 -2 30 -11 16 -12
27 -5 40 7 13 7 21 -2 26 -8 5 -9 13 -4 21 13 21 14 39 2 39 -6 0 -7 8 -3 18
4 9 7 22 6 27 0 6 -3 40 -4 76 -2 36 -8 72 -12 79 -5 9 -4 11 3 6 7 -4 12 -3
12 3 0 5 -6 12 -12 14 -10 4 -9 6 1 6 10 1 10 7 -4 27 -10 15 -12 23 -4 19 9
-6 11 -4 6 8 -3 9 -1 18 6 21 9 3 9 5 0 5 -7 1 -10 8 -7 16 4 9 0 15 -7 15
-11 0 -11 2 0 9 13 8 13 12 0 27 -9 11 -9 15 -1 10 15 -9 16 6 0 22 -9 9 -9
12 1 12 11 0 11 3 1 15 -10 12 -10 15 0 15 9 0 10 3 1 13 -7 10 -7 17 0 24 8
8 8 13 0 17 -6 4 -11 12 -11 17 0 6 6 7 13 3 8 -5 8 -2 -2 9 -11 14 -11 20 0
34 12 14 12 16 0 8 -11 -6 -13 -4 -8 8 3 9 2 19 -3 22 -5 3 -6 15 0 29 4 13 4
29 0 37 -6 8 -4 16 3 21 9 6 9 8 0 8 -7 0 -13 5 -13 11 0 5 5 7 11 3 8 -4 8
-1 2 12 -5 11 -8 28 -8 39 1 11 -4 26 -9 34 -8 11 -8 13 2 7 8 -5 12 -1 12 13
0 11 -5 23 -10 26 -8 5 -7 11 1 21 9 11 9 14 -1 14 -10 0 -10 4 1 16 10 13 10
17 -2 25 -9 6 -10 12 -4 17 12 8 17 44 5 37 -4 -3 -8 6 -7 20 0 16 4 22 11 18
6 -4 5 1 -3 11 -13 15 -13 19 0 27 11 7 10 9 -6 10 -11 0 -14 3 -7 6 6 2 12 9
12 14 0 6 -3 8 -7 6 -5 -3 -8 5 -8 18 0 13 3 21 8 18 9 -5 9 -5 -2 34 -7 22
-6 33 2 37 8 3 8 5 -1 5 -9 1 -10 6 -2 20 6 12 6 22 1 26 -5 3 -8 17 -5 31 3
19 1 24 -8 18 -7 -4 -4 3 6 15 18 20 18 21 2 15 -16 -6 -17 -5 -6 16 9 18 9
24 0 30 -9 6 -9 9 0 15 9 6 9 10 -1 16 -8 5 -9 9 -3 9 9 0 12 38 4 48 -7 8 -5
29 4 41 8 11 8 13 -1 8 -9 -6 -11 3 -9 32 2 22 0 45 -5 52 -4 7 -3 21 2 31 6
12 6 18 -1 18 -5 0 -10 5 -10 11 0 5 5 7 11 3 8 -4 8 -1 2 12 -6 11 -8 35 -6
56 2 20 -1 39 -7 43 -8 5 -8 11 1 21 6 8 8 14 4 14 -4 0 -2 7 5 15 11 13 10
14 -4 9 -18 -7 -22 11 -6 21 8 5 8 11 0 20 -8 10 -7 14 2 18 10 4 10 8 -1 15
-12 9 -12 13 -2 26 8 9 9 16 3 16 -11 0 -10 25 1 36 4 4 7 12 7 18 0 6 -5 4
-10 -4 -8 -12 -10 -12 -10 -1 0 11 -3 11 -17 0 -15 -12 -16 -12 -8 1 7 12 6
13 -7 3 -8 -7 -19 -9 -23 -5 -5 4 -5 1 0 -7 6 -11 3 -13 -13 -9 -12 4 -20 2
-16 -3 3 -5 -2 -9 -10 -9 -9 0 -16 -6 -16 -12 0 -10 -3 -9 -9 1 -6 9 -11 10
-15 2 -4 -6 -12 -9 -17 -6 -5 4 -9 1 -9 -6 0 -7 -3 -10 -6 -7 -3 4 -20 0 -39
-7 -18 -8 -36 -11 -40 -7 -5 4 -5 2 -2 -4 9 -16 -28 -24 -44 -10 -6 6 -9 6 -6
1 3 -6 -8 -18 -24 -28 -17 -9 -27 -13 -24 -8 3 5 -6 4 -20 -2 -14 -7 -25 -16
-25 -22 0 -5 -4 -4 -9 3 -6 11 -11 10 -25 -3 -9 -9 -16 -13 -16 -9 0 3 -8 0
-17 -7 -15 -12 -16 -12 -8 1 8 13 7 13 -9 1 -20 -17 -128 -57 -159 -60 -5 -1
-5 -5 -2 -11 4 -6 -1 -7 -11 -3 -13 5 -15 3 -9 -8 6 -11 5 -11 -5 -2 -10 9
-18 8 -36 -4 -13 -8 -24 -12 -24 -8 0 4 -6 2 -13 -4 -8 -6 -17 -8 -20 -4 -4 3
-7 1 -7 -6 0 -7 -4 -9 -10 -6 -6 3 -10 1 -10 -4 0 -6 -3 -10 -7 -10 -25 4 -53
-2 -48 -10 3 -6 -3 -8 -15 -6 -11 2 -22 0 -25 -6 -4 -5 -15 -9 -26 -9 -10 0
-19 -5 -19 -11 0 -6 -9 -8 -21 -4 -14 5 -19 4 -15 -4 5 -7 1 -9 -8 -5 -9 3
-16 1 -16 -5 0 -6 -3 -10 -7 -10 -5 1 -11 0 -15 -1 -5 -1 -12 -4 -18 -5 -5 -1
-12 -4 -15 -5 -3 -1 -9 -4 -15 -5 -5 -1 -12 -4 -15 -5 -3 -1 -10 -3 -15 -4 -6
0 -15 -8 -20 -16 -8 -13 -10 -13 -10 -1 0 11 -4 10 -16 -5 -8 -10 -13 -13 -9
-6 3 6 1 12 -4 12 -6 0 -11 -4 -11 -10 0 -5 -10 -10 -23 -10 -13 0 -27 -4 -33
-9 -5 -5 -20 -12 -33 -16 -18 -5 -22 -4 -16 5 5 9 4 11 -3 6 -7 -4 -12 -15
-12 -24 0 -15 -2 -15 -10 -2 -6 9 -10 10 -10 3 0 -6 -9 -10 -20 -8 -11 2 -19
-1 -17 -8 1 -7 -6 -11 -15 -9 -10 2 -18 -3 -18 -10 0 -10 -2 -10 -9 0 -7 11
-9 10 -15 -3 -3 -9 -10 -13 -16 -10 -5 3 -10 1 -10 -6 0 -9 -3 -9 -14 0 -10 9
-15 8 -19 -2 -5 -13 -60 -32 -79 -28 -5 0 -8 -3 -8 -9 0 -5 -7 -7 -15 -4 -8 4
-15 1 -15 -5 0 -6 -11 -11 -25 -11 -13 0 -28 -7 -33 -16 -6 -10 -12 -13 -16
-6 -6 10 -66 -12 -66 -24 0 -3 5 -2 12 2 7 4 8 3 4 -5 -5 -8 -12 -9 -19 -2 -8
6 -19 5 -31 -5 -10 -7 -23 -11 -27 -8 -5 3 -9 1 -9 -4 0 -5 -10 -9 -22 -8 -13
0 -22 -4 -21 -10 1 -7 -6 -10 -17 -7 -12 3 -20 0 -20 -7 0 -10 -3 -10 -16 0
-12 11 -15 11 -12 -1 2 -9 -6 -14 -24 -13 -15 1 -26 -4 -25 -10 1 -6 -6 -10
-15 -8 -10 2 -18 -3 -18 -9 0 -7 -3 -9 -7 -6 -3 4 -13 1 -21 -6 -13 -10 -15
-9 -8 3 4 8 1 7 -7 -3 -11 -13 -17 -15 -23 -6 -5 9 -10 9 -18 -2 -10 -13 -20
-17 -56 -24 -8 -1 -14 -7 -13 -11 1 -5 -12 -10 -29 -11 -17 0 -34 -7 -39 -14
-5 -8 -9 -10 -9 -5 0 5 -6 4 -12 -1 -7 -6 -21 -9 -31 -8 -10 2 -21 -3 -23 -10
-3 -7 -14 -12 -25 -10 -10 2 -19 0 -19 -6 0 -5 -9 -9 -21 -9 -11 0 -18 -4 -15
-9 3 -4 -6 -6 -19 -3 -15 2 -25 0 -25 -7 0 -7 -4 -9 -10 -6 -5 3 -10 1 -10 -6
0 -7 -3 -9 -7 -6 -3 4 -13 1 -21 -6 -13 -10 -15 -9 -8 3 6 11 4 11 -6 -1 -7
-9 -21 -15 -30 -13 -10 1 -18 -2 -18 -7 0 -6 -4 -7 -10 -4 -6 3 -10 1 -10 -5
0 -6 -4 -8 -10 -5 -6 3 -10 0 -10 -7 0 -9 -3 -9 -10 2 -7 11 -10 11 -10 2 0
-7 -4 -10 -10 -7 -5 3 -10 1 -10 -4 0 -6 -3 -10 -7 -10 -23 4 -43 -2 -38 -11
3 -6 -1 -7 -10 -4 -8 4 -21 1 -29 -5 -7 -6 -16 -8 -19 -4 -4 3 -7 2 -7 -4 0
-6 -7 -14 -16 -17 -10 -4 -13 -2 -8 7 4 6 -2 4 -13 -6 -11 -9 -22 -14 -25 -11
-4 3 -17 -2 -30 -10 -14 -9 -27 -13 -30 -10 -4 3 -17 -2 -30 -10 -14 -9 -28
-13 -31 -9 -4 3 -7 1 -7 -6 0 -8 -8 -11 -19 -8 -12 3 -22 -1 -25 -10 -4 -8
-12 -13 -20 -10 -8 3 -23 -1 -35 -9 -12 -8 -25 -13 -30 -10 -5 3 -14 -1 -21
-9 -7 -8 -16 -13 -20 -10 -5 3 -14 -1 -22 -8 -7 -7 -23 -12 -35 -11 -13 1 -23
-2 -23 -6 0 -4 -7 -11 -16 -14 -10 -4 -13 -2 -8 7 6 9 5 9 -8 0 -8 -7 -18 -10
-21 -6 -4 3 -7 1 -7 -6 0 -8 -7 -11 -15 -7 -9 3 -18 -1 -21 -9 -4 -8 -10 -13
-14 -10 -10 6 -62 -15 -72 -30 -5 -6 -8 -4 -8 5 -1 12 -2 12 -10 -2 -6 -10
-19 -15 -30 -13 -13 3 -18 0 -14 -7 5 -7 2 -9 -9 -5 -9 3 -18 -1 -21 -10 -5
-12 -9 -13 -21 -3 -11 9 -15 9 -15 1 0 -7 -4 -9 -10 -6 -5 3 -10 1 -10 -5 0
-6 -4 -8 -10 -5 -5 3 -10 1 -10 -5 0 -6 -4 -9 -8 -6 -5 3 -20 -1 -35 -9 -14
-7 -28 -11 -31 -7 -3 3 -6 0 -6 -8 0 -9 -3 -10 -14 -1 -10 8 -16 8 -25 -2 -6
-8 -8 -16 -5 -20 3 -3 -3 -3 -15 0 -13 3 -21 1 -21 -8 0 -7 -3 -10 -6 -6 -4 3
-22 0 -40 -8 -19 -8 -34 -11 -34 -8 0 3 -6 0 -13 -6 -8 -6 -17 -8 -20 -4 -4 3
-7 2 -7 -4 0 -6 -9 -13 -20 -16 -14 -4 -18 -10 -13 -23 4 -10 2 -15 -4 -11 -5
3 -10 0 -10 -8 0 -8 4 -12 9 -9 13 8 6 -29 -7 -38 -6 -5 -5 -8 3 -8 10 0 10
-5 1 -21 -8 -15 -8 -19 0 -15 6 4 11 0 11 -9 0 -10 -5 -13 -12 -9 -10 6 -10 5
-1 -7 9 -11 9 -19 2 -26 -8 -8 -8 -13 0 -17 8 -5 8 -13 1 -26 -7 -13 -7 -21 0
-25 8 -5 8 -11 0 -20 -8 -9 -8 -15 0 -20 7 -4 7 -13 -1 -27 -8 -15 -8 -19 0
-14 6 4 11 3 11 -3 0 -5 -3 -12 -7 -14 -5 -3 -8 -25 -7 -49 1 -31 5 -42 15
-40 9 2 7 -4 -5 -17 -18 -19 -15 -26 8 -22 5 1 5 -4 -1 -11 -15 -20 -24 -50
-13 -43 13 8 13 -1 -1 -27 -8 -15 -8 -19 0 -14 6 4 11 0 11 -9 0 -10 -5 -14
-12 -9 -10 5 -10 4 -1 -6 9 -9 9 -19 2 -33 -6 -11 -7 -17 -2 -14 5 4 10 -1 10
-9 0 -9 -6 -13 -16 -9 -14 4 -14 4 -1 -7 23 -20 25 -49 3 -42 -17 5 -17 5 0
-6 18 -11 18 -12 0 -33 -10 -11 -13 -17 -6 -14 6 4 14 3 18 -2 3 -5 -3 -14
-12 -20 -17 -10 -17 -10 1 -11 16 0 17 -2 5 -17 -12 -15 -12 -16 1 -8 12 6 13
5 3 -6 -16 -16 -17 -33 -2 -23 7 4 7 -1 -1 -16 -10 -18 -9 -24 1 -31 10 -6 11
-9 2 -9 -7 0 -13 -5 -13 -11 0 -5 4 -8 9 -5 5 4 7 -3 4 -14 -3 -11 -10 -17
-17 -13 -6 3 -2 -4 9 -17 11 -13 14 -20 8 -16 -9 5 -13 0 -13 -14 0 -14 4 -19
13 -14 10 6 10 4 0 -7 -7 -7 -13 -19 -13 -27 0 -8 5 -10 13 -6 6 4 3 -3 -8
-16 -11 -13 -14 -20 -7 -16 8 5 12 0 12 -14 0 -13 -4 -19 -11 -14 -8 5 -8 1 0
-13 6 -11 8 -23 4 -26 -3 -4 0 -13 6 -21 9 -11 9 -16 0 -22 -8 -5 -9 -3 -4 6
5 9 4 11 -4 6 -6 -4 -8 -12 -4 -19 11 -19 12 -108 0 -100 -6 3 -7 1 -3 -5 12
-20 15 -76 5 -88 -7 -8 -6 -15 2 -20 8 -5 9 -3 4 6 -5 9 -4 11 3 6 8 -4 9 -14
4 -24 -4 -9 -7 -34 -5 -55 1 -27 -1 -36 -10 -31 -9 5 -9 3 1 -7 14 -16 16 -33
2 -24 -6 4 -7 -2 -1 -18 7 -17 6 -29 -2 -37 -9 -9 -9 -11 -1 -7 15 9 27 -20
12 -29 -7 -4 -8 -3 -4 4 4 7 2 12 -4 12 -7 0 -9 -7 -6 -15 3 -8 9 -22 12 -30
3 -8 1 -15 -6 -15 -6 0 -8 -5 -4 -12 9 -15 12 -58 3 -58 -3 0 -6 -6 -6 -14 0
-8 7 -12 16 -9 12 3 12 2 -2 -7 -13 -9 -15 -15 -7 -31 8 -14 7 -19 -1 -19 -9
0 -9 -3 0 -14 9 -11 8 -15 -5 -20 -13 -5 -14 -9 -4 -21 7 -9 10 -18 7 -22 -4
-3 -2 -15 4 -26 8 -14 8 -18 0 -13 -6 4 -11 3 -11 -3 0 -5 5 -13 10 -16 7 -4
7 -13 0 -24 -6 -12 -5 -22 3 -31 9 -10 9 -11 0 -6 -15 8 -18 -10 -3 -19 7 -4
7 -13 0 -24 -6 -12 -5 -22 2 -29 9 -9 9 -12 0 -12 -10 0 -10 -5 -2 -20 8 -14
8 -20 0 -20 -6 0 -8 -5 -5 -11 11 -16 12 -69 3 -69 -5 0 -4 -9 2 -20 8 -15 8
-20 -2 -20 -8 -1 -5 -7 6 -15 20 -15 20 -15 0 -15 -16 0 -17 -2 -4 -10 13 -9
13 -10 0 -10 -13 0 -13 -1 0 -10 12 -7 12 -10 1 -10 -8 0 -11 -6 -6 -17 11
-29 15 -89 4 -72 -7 11 -9 9 -9 -9 0 -16 4 -21 13 -16 9 5 9 4 0 -6 -9 -9 -9
-19 -2 -33 8 -14 8 -18 0 -13 -14 9 -14 -7 0 -21 7 -7 8 -13 0 -17 -7 -5 -7
-15 -1 -32 6 -14 6 -23 1 -20 -5 3 -11 -1 -15 -9 -3 -8 -1 -17 5 -21 6 -4 5
-12 -3 -22 -11 -14 -10 -15 7 -9 19 7 19 6 2 -7 -14 -10 -15 -15 -5 -19 10 -4
10 -8 -2 -16 -13 -10 -13 -11 0 -11 13 0 13 -1 0 -10 -8 -5 -10 -10 -5 -10 12
0 13 -40 1 -58 -4 -7 -2 -12 6 -12 9 0 9 -3 -2 -10 -13 -9 -13 -10 0 -10 13 0
13 -1 0 -10 -13 -9 -13 -10 0 -10 13 0 13 -1 0 -10 -8 -5 -10 -10 -4 -10 11 0
12 -35 1 -46 -4 -4 -2 -13 4 -21 9 -9 8 -13 0 -13 -6 0 -11 -5 -11 -11 0 -5 6
-7 13 -3 9 6 9 4 -1 -8 -10 -13 -10 -17 0 -21 10 -4 10 -6 -1 -6 -11 -1 -11
-4 -1 -16 9 -10 9 -15 1 -15 -6 0 -11 -5 -11 -11 0 -5 6 -7 13 -3 8 5 8 2 -2
-9 -10 -13 -10 -17 -1 -17 10 0 10 -3 0 -15 -10 -12 -10 -15 1 -15 9 0 10 -3
4 -8 -14 -9 -13 -65 0 -74 6 -5 5 -8 -2 -8 -7 0 -13 -5 -13 -11 0 -5 4 -8 8
-5 11 6 9 -34 -1 -51 -4 -6 -1 -14 5 -16 10 -4 9 -6 -1 -6 -11 -1 -11 -4 -1
-16 7 -8 8 -15 3 -15 -5 0 -9 -9 -9 -19 0 -11 5 -17 11 -13 5 3 4 -2 -4 -12
-13 -15 -13 -19 0 -27 8 -5 9 -9 4 -9 -6 0 -11 -9 -12 -20 -1 -13 3 -18 10
-14 7 3 3 -2 -7 -10 -18 -14 -18 -16 -3 -16 15 0 16 -4 7 -20 -8 -15 -8 -20 2
-20 8 0 9 -3 3 -8 -6 -4 -10 -14 -10 -22 1 -8 -3 -20 -7 -27 -6 -7 -4 -14 3
-19 8 -4 9 -3 5 4 -4 7 -2 12 3 12 14 0 14 -17 2 -25 -10 -5 -7 -37 4 -55 3
-6 -1 -13 -10 -16 -11 -5 -13 -10 -5 -19 5 -6 7 -15 3 -18 -3 -4 0 -13 7 -22
11 -13 10 -14 -2 -10 -13 5 -14 0 -8 -34 4 -23 4 -41 -1 -41 -5 0 -4 -11 1
-25 7 -18 6 -25 -3 -25 -8 0 -7 -4 3 -10 13 -9 13 -10 0 -10 -13 0 -13 -1 0
-10 10 -6 11 -10 3 -10 -9 0 -10 -7 -3 -25 7 -18 6 -25 -3 -26 -6 0 -3 -4 8
-9 15 -7 16 -9 4 -9 -14 -1 -15 -8 -9 -41 4 -22 4 -40 1 -40 -4 0 -7 -9 -7
-19 0 -11 3 -18 6 -16 3 2 5 -16 5 -41 0 -24 -4 -44 -10 -44 -5 0 -3 -5 5 -10
11 -7 11 -10 2 -10 -8 0 -10 -5 -5 -12 4 -7 6 -21 4 -32 -2 -12 1 -16 10 -10
7 4 6 -2 -3 -15 -12 -17 -14 -31 -8 -52 6 -20 5 -29 -3 -29 -7 0 -6 -4 3 -10
13 -9 13 -10 0 -10 -9 0 -11 -3 -5 -8 12 -9 15 -52 3 -52 -5 0 -4 -10 3 -21 6
-12 7 -19 1 -15 -6 4 -8 -9 -5 -34 4 -29 2 -40 -8 -40 -8 0 -6 -6 7 -16 10 -8
14 -13 8 -10 -13 7 -12 -43 1 -64 5 -8 4 -11 -3 -6 -8 5 -10 -15 -7 -69 3 -57
1 -74 -8 -68 -7 4 -6 -1 2 -11 13 -15 13 -19 0 -27 -8 -5 -9 -9 -4 -9 14 0 14
-223 0 -232 -7 -5 -7 -8 1 -8 11 0 12 -158 1 -176 -3 -6 -2 -16 3 -24 5 -9 5
-19 -2 -27 -7 -9 -7 -13 2 -13 10 0 10 -3 1 -14 -8 -10 -9 -16 -1 -21 5 -3 10
-11 10 -16 0 -6 -4 -8 -8 -5 -5 3 -9 -1 -9 -9 0 -8 5 -11 11 -8 6 4 5 -1 -3
-10 -11 -14 -11 -17 0 -17 11 0 11 -2 -1 -10 -13 -9 -13 -10 0 -11 10 0 8 -3
-5 -9 -15 -6 -16 -9 -4 -9 18 -1 22 -32 5 -43 -8 -6 -7 -11 3 -17 11 -7 11 -9
0 -14 -10 -4 -10 -6 -1 -6 6 -1 12 -6 12 -12 0 -5 -3 -8 -8 -5 -9 5 -8 -131 1
-141 4 -3 2 -14 -4 -24 -7 -14 -6 -19 2 -19 8 0 8 -5 -2 -16 -10 -13 -10 -17
2 -25 12 -7 12 -10 0 -18 -9 -6 -10 -11 -2 -15 8 -5 8 -13 1 -27 -7 -13 -7
-19 0 -19 5 0 10 -5 10 -11 0 -5 -4 -8 -8 -5 -10 6 -9 -30 1 -40 4 -4 1 -14
-6 -22 -9 -12 -9 -16 1 -19 6 -3 12 -9 12 -14 0 -6 -3 -8 -7 -6 -5 3 -9 -6 -9
-19 -1 -15 2 -21 10 -17 8 5 8 3 1 -8 -12 -17 -13 -39 -1 -58 6 -9 5 -12 -1
-8 -6 4 -13 -2 -16 -14 -4 -16 -3 -18 9 -8 17 14 19 -2 2 -19 -7 -7 -9 -12 -5
-12 3 0 2 -11 -3 -25 -6 -16 -6 -27 2 -31 7 -5 8 -3 3 6 -6 9 -4 11 4 5 9 -5
9 -11 3 -17 -6 -6 -8 -17 -5 -26 4 -10 2 -13 -5 -8 -6 3 -14 1 -18 -5 -4 -7
-3 -9 3 -6 6 4 16 0 22 -7 9 -11 9 -16 0 -22 -8 -5 -9 -3 -4 6 5 8 4 11 -2 7
-6 -4 -8 -18 -6 -32 3 -13 9 -22 14 -19 5 3 5 -5 0 -18 -4 -13 -7 -38 -5 -56
2 -22 -1 -30 -9 -25 -7 3 -4 -3 6 -14 14 -16 15 -23 6 -29 -8 -5 -10 -3 -4 6
5 8 4 11 -2 7 -11 -7 -5 -54 8 -62 13 -8 -2 -36 -15 -28 -6 3 -2 -4 9 -17 11
-13 14 -20 8 -16 -10 5 -12 -4 -11 -36 2 -24 -1 -49 -6 -57 -6 -9 -5 -12 1 -8
6 4 13 1 16 -7 4 -10 -1 -12 -16 -9 -20 4 -20 3 -4 -7 22 -14 22 -31 0 -24
-17 5 -17 5 0 -6 17 -11 25 -36 8 -26 -11 7 -2 -34 12 -52 7 -9 6 -11 -4 -7
-10 4 -14 -3 -14 -25 0 -16 5 -30 10 -31 6 0 1 -4 -10 -9 -17 -7 -17 -9 -2 -9
9 -1 17 -6 17 -12 0 -6 -8 -8 -17 -5 -17 6 -17 5 -1 -7 15 -12 15 -14 0 -25
-9 -7 -11 -10 -3 -6 10 5 13 3 8 -8 -3 -9 0 -21 6 -27 8 -8 6 -11 -8 -11 -16
0 -17 -2 -6 -9 12 -8 12 -12 2 -24 -9 -12 -9 -17 0 -23 8 -5 9 -3 4 6 -6 9 -4
11 5 5 10 -6 9 -11 -5 -22 -11 -7 -14 -13 -8 -13 6 0 13 -16 15 -35 3 -29 2
-32 -11 -22 -12 9 -12 6 2 -16 17 -26 17 -27 0 -27 -11 0 -14 -3 -7 -8 6 -4
11 -14 12 -22 0 -8 3 -27 5 -42 2 -16 1 -28 -2 -28 -10 0 -7 -100 4 -100 6 0
2 -7 -8 -14 -15 -11 -15 -15 -3 -19 17 -7 10 -47 -8 -47 -6 0 -4 -5 4 -10 13
-9 13 -11 0 -20 -10 -6 -11 -10 -2 -10 6 0 12 -4 12 -10 0 -5 -8 -7 -17 -3
-11 4 -9 -2 7 -15 22 -18 23 -21 8 -27 -10 -4 -18 -11 -18 -17 0 -5 4 -7 9 -4
5 3 8 -7 7 -23 0 -16 -4 -27 -8 -25 -5 3 -8 -2 -8 -11 0 -9 4 -14 9 -10 6 3 9
-3 8 -14 0 -11 -9 -22 -20 -25 -16 -4 -16 -7 -6 -25 7 -11 16 -18 20 -15 4 2
6 -4 4 -13 -1 -11 -10 -17 -21 -15 -18 2 -18 2 1 -10 21 -14 31 -38 16 -38 -5
0 -12 6 -14 13 -3 6 -4 0 -3 -15 2 -15 8 -34 16 -42 7 -10 8 -16 2 -16 -6 0
-14 5 -17 10 -4 6 -10 8 -15 5 -11 -7 -23 13 -25 42 -1 25 10 31 19 11 3 -7 4
-4 3 7 -2 11 -8 19 -13 18 -6 -1 -11 5 -11 13 0 7 9 14 19 14 10 0 18 4 18 9
0 5 -10 7 -22 4 -17 -3 -19 -2 -9 5 9 7 10 15 3 28 -5 11 -8 54 -6 96 1 43 -1
80 -7 83 -6 4 -5 13 1 24 5 10 6 21 3 25 -11 10 -12 37 -2 30 5 -3 6 -10 3
-16 -4 -7 -2 -8 4 -4 9 5 9 13 2 27 -6 10 -7 19 -3 19 4 0 2 5 -5 12 -7 7 -8
17 -1 30 7 13 6 18 -2 18 -7 0 -6 9 5 25 15 22 15 25 -2 34 -16 9 -16 10 2 17
18 7 18 8 2 14 -17 6 -17 7 -2 23 16 16 16 17 1 17 -16 0 -16 2 -1 25 15 22
15 24 0 18 -14 -5 -15 -3 -5 15 9 17 9 22 -1 22 -6 0 -4 6 7 13 14 11 15 16 5
22 -9 6 -11 4 -5 -5 5 -9 4 -11 -4 -6 -6 4 -8 13 -4 19 13 21 13 58 0 50 -7
-4 -6 0 2 10 7 9 10 17 6 17 -4 0 -2 7 5 15 11 13 10 14 -1 10 -10 -4 -15 2
-16 17 -2 18 0 20 8 8 8 -12 9 -9 7 10 -2 18 1 24 12 22 8 -2 11 0 7 5 -5 4
-14 8 -19 8 -22 0 -19 25 4 34 l23 10 -22 0 c-13 1 -23 6 -23 12 0 5 6 7 13 3
8 -5 8 -2 -2 9 -10 13 -10 17 -1 17 9 0 9 4 -1 17 -10 11 -10 14 -1 9 6 -4 12
-2 12 3 0 6 -5 11 -11 11 -8 0 -8 4 0 14 9 10 9 16 1 21 -8 5 -8 10 0 20 6 7
7 16 2 19 -10 6 -10 66 1 83 4 6 2 15 -4 19 -8 5 -9 3 -4 -6 6 -9 4 -11 -5 -5
-10 6 -9 11 5 22 14 9 15 13 4 13 -12 0 -12 2 1 10 8 5 10 10 4 10 -7 0 -15 7
-18 16 -4 10 -2 13 6 8 7 -5 9 -2 5 8 -3 9 0 21 6 28 9 10 9 11 0 6 -8 -4 -13
-1 -13 8 0 9 6 16 13 16 8 0 7 4 -3 10 -8 5 -12 10 -8 10 4 0 3 14 -2 31 -7
25 -7 29 4 20 11 -9 12 -6 8 14 -2 14 -9 22 -16 19 -6 -3 -2 2 8 10 14 11 15
16 6 16 -11 0 -11 3 -2 12 18 18 14 32 -5 17 -14 -13 -15 -12 -6 6 5 11 9 37
7 58 -1 20 3 40 7 43 5 3 9 11 9 17 0 7 -4 6 -10 -3 -8 -13 -10 -12 -10 3 0 9
5 17 12 17 6 0 3 7 -8 16 -10 8 -13 13 -6 9 7 -4 12 0 12 10 0 10 -5 14 -12
10 -7 -4 -5 0 4 7 15 13 15 15 0 26 -9 7 -11 10 -4 7 6 -3 12 -2 12 2 0 5 -6
15 -12 22 -9 10 -9 12 -1 7 6 -3 14 -2 18 4 3 5 2 10 -3 10 -5 0 -9 20 -9 44
0 24 -4 49 -8 56 -5 9 -4 11 3 6 7 -4 12 -3 12 3 0 5 -5 13 -12 17 -8 5 -6 10
8 15 18 7 18 8 -1 8 -17 1 -17 3 -5 11 13 8 12 11 -5 25 -11 8 -13 13 -5 10
13 -4 15 8 15 77 0 46 -4 86 -10 90 -6 5 -5 8 3 8 10 0 10 5 2 20 -9 16 -8 20
7 21 14 0 13 2 -4 9 -13 5 -23 12 -23 14 0 3 6 3 14 0 11 -4 13 1 6 30 -7 30
-5 36 9 36 10 0 12 3 5 8 -6 4 -13 17 -16 30 -5 16 -2 22 10 22 13 0 12 3 -4
15 -15 11 -16 15 -4 15 10 1 9 4 -5 10 -18 8 -18 9 -2 9 14 1 16 5 8 18 -7 12
-5 21 7 30 13 10 13 12 2 8 -12 -4 -15 6 -15 57 0 35 5 66 10 70 6 5 6 8 -2 8
-8 0 -9 9 -3 29 6 21 4 33 -9 46 -9 10 -11 15 -4 11 15 -8 13 66 -2 76 -7 5
-6 8 1 8 6 0 12 11 12 25 0 14 -6 25 -12 26 -6 0 -2 4 9 9 11 5 15 9 8 9 -8 1
-11 14 -8 41 3 28 1 39 -7 34 -7 -5 -8 -2 -2 7 12 21 13 59 0 59 -7 0 -6 4 2
8 13 9 12 38 -2 61 -6 9 -5 12 1 8 14 -9 15 64 1 80 -7 9 -6 15 6 19 15 6 15
7 0 19 -14 9 -14 14 -4 20 9 6 11 4 5 -5 -5 -9 -4 -11 3 -6 9 5 7 15 -6 34 -9
14 -12 23 -6 20 7 -5 11 5 11 27 0 19 -5 32 -10 28 -5 -3 -4 4 2 15 14 27 14
35 -1 26 -9 -5 -9 -2 1 9 11 14 11 17 0 17 -12 0 -12 2 0 9 9 6 10 10 2 16 -9
5 -9 10 0 21 9 11 8 14 -2 14 -11 0 -11 2 1 10 13 9 13 10 0 10 -13 0 -13 1 0
10 12 8 12 10 1 10 -11 0 -11 3 -1 15 10 12 10 15 0 15 -10 0 -10 3 -1 14 9
10 9 16 1 21 -8 5 -8 11 -1 19 7 9 7 16 -1 24 -8 8 -9 12 -1 12 6 0 10 8 8 18
-1 9 -9 16 -16 14 -8 -1 -5 4 5 13 12 9 15 15 7 15 -10 0 -11 3 -2 14 9 11 9
16 0 21 -8 6 -7 10 2 16 12 7 12 9 0 9 -10 0 -11 3 -2 14 9 10 9 16 1 21 -8 5
-8 10 0 20 8 10 8 15 -1 20 -8 6 -7 10 2 16 12 7 12 9 0 9 -10 0 -11 3 -2 14
9 11 9 16 0 21 -8 6 -7 10 2 16 12 7 12 9 0 9 -11 0 -11 3 -1 15 10 12 10 15
0 15 -10 0 -10 3 -1 14 9 11 9 16 0 21 -8 6 -7 10 2 16 11 7 11 9 -1 9 -13 0
-13 1 0 10 12 8 12 10 1 10 -11 0 -11 3 -1 15 10 12 10 15 0 15 -10 0 -10 3
-1 14 9 11 9 16 0 21 -8 6 -7 10 2 16 10 6 11 9 2 9 -7 0 -13 5 -13 11 0 5 6
7 13 3 8 -5 8 -2 -2 9 -9 12 -10 17 -2 17 7 0 9 5 6 10 -4 6 -12 7 -18 3 -7
-3 -4 3 6 14 16 18 16 21 1 34 -14 12 -14 14 2 26 10 7 13 13 7 13 -6 0 -10
11 -10 25 0 14 5 25 11 25 6 0 4 4 -4 10 -8 5 -11 12 -7 16 4 4 -1 16 -10 26
-15 16 -15 18 -1 13 9 -4 19 -1 24 6 5 8 3 10 -6 4 -9 -6 -10 -2 -5 15 5 17 4
21 -5 15 -9 -5 -11 -4 -6 4 10 15 10 207 0 222 -5 8 -3 9 7 4 12 -8 12 -6 0 8
-11 14 -11 17 0 17 11 0 11 2 -1 10 -11 7 -11 10 -2 10 10 0 10 5 2 20 -7 14
-7 20 0 20 5 0 10 5 10 11 0 5 -4 8 -8 5 -4 -2 -8 4 -8 15 0 13 5 18 15 14 10
-4 11 -2 4 7 -14 18 -14 79 0 97 10 12 9 13 -2 6 -11 -6 -13 -3 -9 13 3 12 1
23 -4 24 -6 2 -3 11 6 21 10 9 13 17 7 17 -15 0 -14 50 2 50 6 1 1 7 -13 15
-19 11 -21 14 -8 15 10 0 16 6 14 13 -15 46 -16 68 -4 61 10 -6 9 -3 -1 9 -9
12 -10 17 -2 17 7 0 9 5 4 13 -4 6 -6 20 -5 30 2 10 -2 25 -9 33 -10 12 -9 13
6 8 14 -6 16 -4 10 6 -5 8 -10 28 -11 46 -1 18 -5 37 -8 43 -4 5 -2 13 4 16 8
5 7 12 -2 23 -11 13 -11 14 1 7 11 -6 13 -4 8 8 -4 10 -1 17 6 17 9 0 9 2 0 8
-15 9 -18 32 -8 56 5 12 3 21 -6 27 -12 8 -12 11 1 19 13 9 13 11 0 20 -13 9
-13 10 0 10 13 0 13 1 0 10 -13 9 -13 11 0 20 13 9 13 10 0 10 -13 0 -13 1 0
10 13 9 13 11 0 20 -13 9 -13 10 0 10 13 0 13 1 0 10 -13 9 -13 11 0 20 9 6
11 13 5 18 -13 10 -18 35 -5 27 5 -3 10 -1 10 4 0 6 -5 11 -11 11 -8 0 -8 5 1
15 9 10 9 15 1 15 -8 0 -8 6 1 21 10 17 10 23 1 26 -9 3 -9 10 -1 28 8 18 8
28 0 38 -7 8 -7 18 -2 27 13 20 12 33 -1 24 -8 -5 -8 -1 0 14 14 27 14 35 -1
26 -7 -4 -8 -3 -4 5 11 18 18 63 8 57 -10 -6 -9 24 1 40 3 6 3 14 -1 18 -10
10 -10 56 0 50 4 -3 8 0 8 5 0 6 -5 11 -11 11 -8 0 -7 5 1 15 7 9 10 18 6 22
-3 3 -6 0 -6 -7 0 -7 -3 -10 -6 -7 -4 4 -1 13 6 22 10 12 9 15 -6 15 -11 0
-15 3 -9 8 6 4 10 14 10 22 -1 8 3 20 7 27 6 7 3 15 -9 22 -17 10 -17 10 2 11
11 0 16 3 10 8 -13 9 -13 62 -1 81 6 9 5 12 -2 7 -6 -3 -13 -2 -17 4 -3 5 -1
10 5 10 7 0 10 6 7 14 -3 7 0 19 6 26 9 10 8 12 -4 7 -13 -4 -16 -1 -11 16 2
12 9 27 14 34 6 7 4 14 -3 19 -8 5 -9 3 -4 -6 6 -9 4 -11 -4 -5 -9 5 -10 10
-2 18 7 7 7 16 0 30 -9 15 -8 18 1 12 10 -6 11 -1 6 19 -4 18 -2 26 6 26 9 0
9 3 2 8 -12 8 -12 121 0 141 6 9 5 12 -2 7 -12 -7 -11 32 3 53 6 10 4 12 -5 6
-10 -6 -12 -4 -7 7 3 9 0 21 -6 28 -9 10 -9 11 2 5 10 -6 13 -4 8 7 -3 9 0 21
6 27 7 7 8 12 2 11 -22 -5 -26 1 -10 16 11 12 13 20 6 27 -15 15 -14 60 0 51
6 -3 3 6 -7 22 -11 15 -13 25 -6 21 6 -5 12 -4 12 2 0 5 -6 12 -12 14 -9 4
-10 6 -1 6 8 1 9 10 3 31 -6 22 -5 28 2 24 8 -5 9 -1 5 10 -4 10 -7 20 -7 22
0 3 -6 2 -12 -2 -9 -5 -9 -3 1 9 7 9 18 14 24 10 6 -3 7 -1 3 6 -4 6 -12 8
-18 5 -7 -4 -7 0 1 13 8 15 6 26 -6 43 -9 13 -11 20 -5 16 15 -9 12 85 -3 96
-6 4 -2 8 8 8 9 0 17 5 17 11 0 5 -4 8 -9 4 -16 -9 -7 49 9 62 12 10 11 11
-10 7 -20 -5 -22 -3 -10 5 13 9 13 14 2 32 -10 15 -10 19 -1 14 9 -6 10 -1 7
19 -3 14 -1 26 4 26 5 0 6 5 3 10 -4 6 -12 8 -18 4 -7 -3 -4 1 6 9 17 14 17
15 0 22 -17 6 -17 7 1 21 11 8 14 14 8 14 -15 0 -16 27 -1 32 8 3 6 10 -5 21
-16 16 -16 17 1 17 14 0 15 2 4 9 -11 7 -11 9 0 14 10 4 10 6 2 6 -7 1 -13 6
-13 12 0 5 4 8 8 5 10 -6 8 42 -3 51 -4 5 -5 2 0 -6 6 -10 4 -12 -5 -6 -10 6
-9 11 4 21 10 7 13 15 8 18 -6 3 -8 16 -5 29 3 12 2 19 -2 15 -4 -4 -18 1 -31
11 -13 10 -35 17 -49 16 -14 -2 -25 0 -25 3 0 4 -11 12 -25 18 -18 9 -25 9
-29 0 -3 -7 -5 -7 -5 2 -1 6 -8 12 -17 12 -8 0 -13 3 -11 8 3 4 -8 8 -24 9
-16 1 -39 9 -51 18 -13 8 -33 15 -46 15 -13 0 -20 4 -17 10 3 6 -1 7 -9 4 -10
-4 -16 -1 -16 7 0 11 -3 11 -10 -1 -6 -10 -10 -11 -10 -2 0 6 -9 12 -20 12
-11 0 -20 4 -20 10 0 5 -3 9 -7 9 -29 -5 -53 2 -47 14 6 9 5 9 -8 -1 -12 -10
-18 -9 -28 3 -7 8 -16 12 -21 9 -5 -3 -9 0 -9 5 0 6 -8 11 -18 11 -10 0 -24 6
-31 13 -11 10 -12 9 -6 -3 5 -9 -2 -7 -16 6 -13 11 -34 19 -46 18 -13 0 -23 3
-23 8 0 6 -6 8 -14 5 -8 -3 -16 -1 -18 4 -2 5 -13 11 -26 12 -12 0 -22 5 -22
10 0 5 -9 7 -19 4 -12 -3 -22 1 -25 10 -3 8 -10 12 -15 8 -5 -3 -12 -1 -16 5
-4 6 -11 8 -16 5 -5 -4 -9 -2 -9 4 0 6 -6 8 -14 5 -8 -3 -17 0 -21 5 -3 6 -11
9 -16 6 -5 -4 -9 -1 -9 5 0 6 -4 9 -9 5 -5 -3 -16 2 -24 10 -12 11 -17 12 -20
2 -4 -9 -6 -9 -6 1 -1 7 -5 11 -10 7 -5 -3 -17 2 -25 11 -12 11 -16 12 -16 2
0 -10 -2 -10 -8 0 -5 7 -19 14 -31 17 -13 2 -34 11 -47 20 -22 14 -23 14 -17
-2 4 -13 1 -12 -11 4 -10 13 -24 20 -36 18 -11 -2 -20 -1 -20 3 0 4 -11 12
-25 19 -14 6 -23 7 -19 2 3 -5 0 -9 -5 -9 -6 0 -11 5 -11 11 0 5 -4 8 -9 5 -5
-3 -12 1 -15 9 -5 13 -10 14 -28 4 -13 -6 -20 -8 -16 -4 5 5 -2 15 -14 23 -16
11 -23 12 -26 4 -2 -8 -8 -7 -19 4 -9 8 -22 13 -29 10 -8 -3 -13 0 -11 7 1 7
-6 11 -17 9 -10 -2 -22 1 -25 7 -4 6 -21 11 -38 13 -17 1 -29 6 -27 10 3 4 -2
8 -10 8 -9 0 -16 6 -16 13 0 9 -3 8 -9 -2 -5 -8 -10 -9 -12 -2 -2 6 -13 12
-24 14 -11 1 -26 6 -32 10 -7 5 -13 5 -13 0 0 -4 -5 0 -11 10 -9 15 -13 16
-27 5 -13 -11 -14 -11 -7 1 6 11 4 13 -8 8 -10 -3 -17 -2 -17 4 0 6 -4 7 -10
4 -5 -3 -10 -1 -10 4 0 6 -11 11 -25 11 -14 0 -25 4 -25 10 0 5 -6 7 -14 4 -8
-3 -17 0 -21 5 -3 6 -11 9 -16 6 -5 -4 -9 -2 -9 2 0 5 -12 10 -27 11 -16 1
-32 8 -38 15 -5 8 -20 13 -32 12 -13 -1 -23 2 -23 7 0 5 -4 7 -9 4 -5 -3 -12
1 -15 10 -5 13 -9 14 -21 4 -10 -9 -15 -9 -15 -1 0 6 -9 11 -21 11 -11 0 -18
4 -15 9 3 5 -6 9 -20 9 -15 0 -29 3 -33 8 -6 9 -27 16 -48 17 -7 0 -13 4 -13
9 0 5 -4 7 -9 4 -5 -3 -14 0 -20 8 -6 7 -25 12 -41 11 -16 -1 -28 2 -27 8 1 5
-11 12 -28 14 -16 2 -34 8 -40 14 -5 5 -17 9 -27 9 -10 0 -18 4 -18 10 0 5 -3
9 -7 9 -30 -5 -63 3 -63 15 0 8 -9 12 -25 11 -14 -2 -25 1 -25 6 0 6 -4 8 -9
4 -5 -3 -12 -1 -16 5 -4 6 -11 8 -16 5 -5 -4 -9 -1 -9 5 0 6 -4 9 -9 5 -5 -3
-12 -1 -16 5 -3 6 -16 8 -28 6 -23 -4 -61 16 -51 27 3 3 -2 4 -13 3 -10 -2
-21 1 -24 5 -3 5 -17 10 -32 11 -15 1 -27 6 -27 11 0 5 -7 6 -15 3 -9 -3 -18
1 -21 8 -3 8 -14 13 -25 11 -10 -2 -19 0 -19 6 0 5 -9 9 -20 9 -11 0 -20 6
-20 13 0 8 -4 7 -10 -3 -6 -10 -10 -11 -10 -2 0 6 -9 12 -19 12 -11 0 -22 6
-24 13 -4 9 -6 9 -6 -1 -1 -10 -5 -10 -17 2 -8 9 -20 14 -25 11 -5 -4 -9 -1
-9 5 0 6 -4 9 -8 6 -5 -3 -26 4 -48 16 -25 13 -35 15 -29 6 7 -9 5 -9 -5 2
-17 16 -33 22 -67 22 -13 0 -20 5 -16 11 4 6 0 8 -10 4 -9 -3 -18 1 -21 10 -5
13 -9 13 -23 2 -12 -10 -14 -10 -9 -1 5 8 0 12 -13 12 -12 0 -21 5 -21 11 0 8
-4 8 -14 0 -11 -10 -16 -8 -20 7 -5 13 -14 18 -31 16 -14 -1 -25 2 -25 7 0 6
-4 7 -10 4 -5 -3 -10 -1 -10 5 0 6 -5 8 -11 4 -6 -3 -15 0 -20 7 -7 12 -9 11
-9 -1 0 -10 -7 -7 -20 10 -11 14 -20 19 -20 11 0 -10 -3 -11 -14 -2 -8 7 -24
14 -37 16 -12 3 -25 9 -29 15 -4 6 -14 8 -23 4 -10 -3 -17 -1 -17 6 0 6 -4 8
-10 5 -5 -3 -10 -1 -10 6 0 7 -3 9 -7 6 -3 -4 -13 -1 -21 6 -13 10 -15 9 -8
-3 4 -8 0 -6 -8 4 -12 15 -16 16 -16 5 0 -11 -2 -11 -9 -1 -4 7 -17 15 -27 17
-10 2 -20 4 -21 5 -4 3 -20 7 -34 9 -5 0 -8 5 -5 9 3 5 -1 9 -9 9 -8 0 -15 -5
-15 -11 0 -6 -5 -4 -11 4 -7 11 -9 1 -6 -37z m1697 -1611 c8 -2 17 -8 18 -13
2 -5 8 -7 13 -3 5 3 9 1 9 -5 0 -5 9 -8 20 -6 11 2 20 0 20 -6 0 -5 9 -9 20
-9 11 0 20 -4 20 -10 0 -5 10 -10 23 -10 12 0 31 -7 41 -15 10 -8 23 -12 27
-9 5 3 9 0 9 -6 0 -7 7 -10 15 -6 8 3 21 -2 30 -10 8 -8 19 -12 25 -9 5 3 10
1 10 -5 0 -6 5 -8 10 -5 6 3 10 1 10 -5 0 -6 4 -9 9 -6 5 3 14 -1 21 -10 7 -8
19 -13 26 -10 7 3 16 1 19 -5 4 -5 11 -7 16 -4 5 4 9 1 9 -6 0 -6 8 -9 20 -6
11 3 20 1 20 -4 0 -11 59 -35 73 -31 5 1 6 -2 2 -8 -3 -6 -11 -8 -16 -5 -13 9
-11 -9 3 -23 9 -9 9 -12 -1 -12 -11 0 -11 -3 0 -17 10 -11 10 -14 2 -9 -7 4
-13 3 -13 -1 0 -5 6 -15 13 -22 6 -8 7 -11 2 -8 -12 6 -13 -32 -2 -50 4 -6 2
-13 -4 -15 -9 -3 -9 -10 1 -27 7 -15 8 -21 1 -17 -15 10 -14 -7 2 -23 10 -11
10 -13 0 -7 -8 5 -13 1 -13 -9 0 -10 5 -13 13 -9 6 4 4 -2 -6 -13 -18 -21 -18
-22 1 -41 17 -17 18 -21 6 -26 -10 -4 -12 -2 -8 6 5 7 3 8 -5 4 -9 -6 -8 -13
6 -29 10 -12 12 -17 4 -12 -11 6 -13 4 -8 -8 4 -10 1 -17 -6 -17 -7 0 -3 -6 7
-12 19 -11 19 -11 1 -24 -10 -8 -13 -14 -7 -14 7 0 12 -5 12 -11 0 -5 -6 -7
-12 -3 -10 5 -10 4 -1 -6 9 -10 10 -17 2 -27 -8 -9 -8 -13 0 -13 10 0 10 -22
0 -55 -2 -5 3 -21 11 -35 11 -22 11 -23 -1 -13 -12 10 -15 8 -15 -8 0 -10 4
-19 9 -19 5 0 4 -6 -2 -14 -9 -11 -9 -15 0 -18 9 -3 9 -9 0 -27 -9 -16 -9 -26
-1 -36 8 -10 8 -15 -1 -20 -8 -6 -7 -10 2 -16 8 -5 9 -9 3 -9 -6 0 -11 -7 -11
-15 0 -8 5 -15 10 -15 5 0 3 -8 -4 -17 -12 -14 -12 -16 0 -8 11 6 12 5 5 -6
-5 -8 -7 -22 -5 -33 2 -13 -1 -16 -11 -11 -10 6 -10 5 -1 -5 6 -7 9 -19 6 -28
-5 -11 -3 -13 7 -7 10 6 11 4 4 -6 -5 -8 -10 -25 -11 -39 -3 -20 -1 -22 7 -10
5 8 10 10 10 4 0 -6 -3 -14 -7 -18 -12 -11 -10 -76 1 -76 6 0 5 -4 -3 -9 -13
-8 -13 -12 0 -27 9 -11 9 -15 2 -10 -9 5 -13 -2 -13 -24 0 -22 4 -29 13 -24 8
6 8 3 -1 -9 -8 -9 -11 -25 -7 -38 5 -14 4 -19 -4 -15 -7 4 -9 1 -5 -8 4 -10 0
-14 -15 -13 -12 1 -21 5 -21 9 0 4 -9 5 -20 3 -11 -2 -20 0 -20 4 0 4 -14 5
-31 3 -24 -4 -30 -2 -24 8 6 10 4 11 -6 4 -21 -13 -39 -14 -39 -1 0 7 -5 5
-10 -3 -8 -12 -10 -12 -10 -1 0 11 -3 11 -17 0 -14 -12 -16 -12 -8 0 6 11 2
13 -19 7 -15 -4 -25 -3 -23 1 3 5 -7 8 -21 7 -15 0 -30 4 -34 10 -5 8 -8 7 -8
-1 0 -7 -7 -13 -15 -13 -8 0 -15 5 -15 11 0 8 -5 8 -15 -1 -10 -8 -15 -9 -15
-2 0 7 -15 10 -36 8 -19 -1 -37 1 -40 5 -2 4 -16 6 -30 3 -16 -3 -23 -1 -19 6
9 14 -18 13 -34 -2 -11 -10 -13 -10 -7 0 4 7 1 12 -7 12 -15 0 -18 74 -4 97 5
7 3 22 -3 33 -8 16 -8 25 0 35 8 9 8 15 0 20 -6 3 -7 11 -3 18 10 17 10 57 0
57 -5 0 -3 8 4 17 12 14 12 15 1 9 -11 -7 -12 -4 -3 13 9 16 9 21 0 21 -8 0
-8 4 1 15 10 12 10 19 2 27 -8 8 -8 17 0 31 7 15 7 22 -3 28 -8 5 -9 9 -4 9 6
0 11 24 12 55 0 37 -3 53 -11 49 -6 -3 -3 1 7 9 18 15 18 16 0 26 -11 7 -13
11 -4 11 9 0 12 11 9 40 -2 22 0 40 4 40 4 0 3 11 -2 25 -5 14 -6 25 -2 25 5
0 7 16 6 35 -2 19 1 37 7 41 6 3 6 10 1 17 -17 22 -21 46 -10 53 7 5 8 2 3 -6
-5 -8 -4 -11 3 -6 14 9 3 38 -12 30 -6 -3 -2 2 8 10 11 9 15 16 9 16 -12 0
-12 25 0 36 4 4 7 12 7 18 0 6 -5 4 -10 -4 -12 -18 -8 48 4 68 4 7 2 12 -5 12
-8 0 -8 4 1 15 9 10 9 15 1 15 -6 0 -11 5 -11 11 0 5 5 7 10 4 16 -10 7 18
-10 33 -8 8 -9 11 -2 7 6 -3 13 0 13 7 1 7 2 20 3 28 1 8 -2 20 -7 27 -4 6 -3
14 3 18 5 3 10 11 10 16 0 6 -5 7 -11 3 -8 -5 -8 -1 0 13 7 14 7 24 -2 33 -9
10 -9 11 0 6 16 -9 15 42 -1 63 -8 11 -8 13 1 7 9 -5 12 1 9 23 -3 27 12 47
24 32 3 -3 12 -7 20 -9z m4417 -13 c2 -14 -1 -18 -9 -13 -9 5 -8 2 1 -10 11
-13 11 -20 3 -28 -9 -9 -8 -16 4 -29 11 -12 12 -19 4 -24 -8 -5 -7 -11 2 -23
11 -13 11 -14 0 -8 -10 6 -11 1 -6 -20 5 -21 4 -25 -7 -19 -8 5 -7 0 3 -10 16
-17 16 -19 0 -32 -9 -7 -12 -13 -7 -12 22 3 29 -2 15 -11 -9 -6 -10 -10 -3
-10 8 0 9 -9 3 -30 -7 -23 -5 -32 8 -40 16 -9 16 -9 0 -10 -14 0 -16 -4 -8
-24 5 -13 6 -27 3 -30 -3 -3 -1 -12 5 -19 7 -8 9 -17 5 -21 -11 -11 -10 -86 1
-86 5 0 2 -6 -9 -13 -14 -11 -15 -16 -5 -22 9 -6 11 -4 5 5 -5 9 -4 11 4 6 6
-4 8 -13 4 -19 -12 -19 -14 -49 -3 -42 7 4 7 -2 0 -19 -7 -19 -6 -26 3 -26 6
0 3 -7 -7 -15 -20 -15 -20 -15 0 -15 16 0 17 -2 4 -10 -13 -9 -13 -10 0 -10
13 0 13 -1 0 -10 -8 -5 -10 -10 -3 -10 12 0 12 -17 0 -37 -5 -7 -4 -13 2 -13
7 0 7 -8 1 -26 -6 -14 -6 -23 -1 -20 5 3 9 -5 9 -19 0 -16 -5 -22 -12 -18 -6
4 -5 -1 3 -11 13 -15 13 -19 0 -27 -8 -5 -9 -9 -4 -9 7 0 11 -29 10 -72 0 -40
5 -79 10 -87 7 -11 7 -13 -2 -7 -7 4 -13 2 -13 -3 0 -6 5 -11 12 -11 9 0 9 -3
1 -11 -7 -7 -8 -21 -3 -40 5 -18 5 -29 -1 -29 -6 0 -7 -5 -3 -12 4 -6 7 -40 7
-75 0 -44 3 -61 11 -56 7 5 7 2 -1 -8 -6 -8 -10 -27 -9 -42 2 -20 -1 -27 -13
-27 -10 0 -23 -6 -30 -12 -11 -11 -12 -10 -6 2 6 12 5 13 -5 3 -11 -10 -17
-10 -29 0 -12 10 -13 9 -7 -2 7 -10 3 -12 -14 -6 -15 5 -20 4 -16 -4 5 -8 0
-8 -19 -1 -19 7 -24 7 -19 -2 5 -7 2 -9 -8 -5 -9 3 -21 0 -27 -6 -8 -8 -11 -8
-11 2 0 11 -3 11 -17 0 -15 -12 -16 -12 -8 1 7 12 6 13 -6 3 -8 -7 -25 -10
-37 -6 -15 3 -22 1 -22 -8 0 -11 -2 -11 -10 1 -8 12 -10 12 -10 1 0 -10 -3
-11 -14 -2 -11 9 -16 9 -22 0 -5 -8 -3 -9 6 -4 9 5 11 4 6 -4 -6 -9 -11 -9
-22 0 -11 9 -14 9 -14 -1 0 -10 -3 -10 -15 0 -9 8 -15 9 -15 2 0 -6 -9 -9 -20
-7 -11 2 -20 0 -20 -4 0 -12 -33 -8 -42 4 -5 6 -8 5 -8 -3 0 -7 -4 -11 -9 -7
-5 3 -13 1 -16 -5 -5 -8 -12 -7 -23 2 -12 10 -14 10 -8 1 11 -19 -2 -16 -26 7
-13 12 -17 20 -9 20 7 0 11 6 8 14 -3 7 0 19 6 26 9 10 9 11 0 6 -8 -4 -13 -2
-13 6 0 8 6 20 13 27 10 11 10 13 0 7 -8 -4 -13 -2 -13 6 0 8 6 20 13 27 10
11 10 13 0 7 -8 -4 -13 -2 -13 6 0 8 6 20 13 27 10 11 9 13 -1 7 -9 -6 -11 9
-7 64 3 53 1 69 -8 64 -9 -5 -9 -4 0 6 9 9 9 17 2 26 -7 8 -7 14 1 19 8 5 8
11 -1 21 -8 10 -8 14 0 14 6 0 11 5 11 11 0 5 -6 7 -12 3 -9 -5 -9 -2 1 9 7 9
9 17 4 17 -12 0 -11 40 2 40 5 0 2 7 -8 14 -10 8 -13 16 -8 17 11 4 18 115 8
125 -3 3 -1 19 3 35 7 24 6 29 -8 29 -13 0 -14 2 -3 9 9 6 11 21 7 50 -3 23
-2 40 3 37 4 -3 8 1 8 9 0 8 -4 12 -9 9 -5 -3 -6 6 -2 20 4 18 2 26 -7 26 -9
0 -10 3 -4 8 16 11 17 34 3 43 -10 7 -10 9 0 9 6 0 12 7 12 16 0 9 -5 12 -12
8 -9 -5 -9 -2 1 9 11 14 11 17 0 17 -12 0 -12 2 0 9 8 5 9 11 3 15 -11 7 -11
24 2 44 5 8 4 18 -2 24 -8 8 -8 17 -1 30 7 13 6 18 -3 18 -9 0 -9 3 2 10 12 8
12 10 1 10 -11 0 -11 3 0 17 9 11 10 14 2 9 -9 -5 -11 -2 -7 8 3 9 11 13 18
10 6 -3 3 1 -7 9 -14 11 -15 16 -5 20 10 4 10 7 -1 15 -11 8 -5 13 27 23 23 7
42 16 42 20 0 4 9 6 20 4 11 -2 20 0 20 4 0 4 23 15 50 25 28 10 50 23 50 30
0 6 5 4 10 -4 6 -10 10 -11 10 -2 0 6 3 12 8 11 14 -2 52 14 52 22 0 5 7 6 15
3 8 -4 15 -1 15 6 0 6 4 9 9 5 5 -3 12 -1 16 5 4 6 11 8 16 5 5 -4 9 -1 9 4 0
6 3 10 8 9 16 -3 62 15 62 26 0 6 4 5 9 -3 7 -11 11 -9 21 9 10 18 14 20 21 9
7 -12 10 -11 21 2 13 17 40 29 47 22 3 -2 6 -13 8 -24z m-3897 -122 c5 -26 4
-34 -4 -31 -7 3 -13 21 -13 40 -1 43 6 38 17 -9z m3356 31 c5 -7 3 -8 -6 -3
-10 6 -12 1 -8 -22 2 -19 0 -30 -8 -30 -7 0 -10 10 -8 25 8 41 17 51 30 30z
m1104 -1218 c0 -5 -5 -10 -11 -10 -5 0 -7 5 -4 10 3 6 8 10 11 10 2 0 4 -4 4
-10z m-60 -4 c0 -3 -4 -8 -10 -11 -5 -3 -10 -1 -10 4 0 6 5 11 10 11 6 0 10
-2 10 -4z m-5525 -1025 c3 -5 2 -12 -3 -15 -5 -3 -9 1 -9 9 0 17 3 19 12 6z
m5615 5 c0 -2 -8 -10 -17 -17 -16 -13 -17 -12 -4 4 13 16 21 21 21 13z m-50
-20 c0 -2 -7 -7 -16 -10 -8 -3 -12 -2 -9 4 6 10 25 14 25 6z m-5012 -100 c7
-4 12 -2 12 5 0 8 7 6 19 -5 12 -11 21 -13 25 -7 4 6 13 8 21 5 8 -4 12 -11 8
-18 -4 -6 1 -5 10 3 10 7 17 9 17 3 0 -6 11 -9 25 -7 14 1 25 -2 25 -7 0 -5 4
-6 10 -3 5 3 19 1 31 -6 12 -6 19 -7 15 -1 -4 6 2 8 14 5 11 -3 20 -10 20 -17
0 -6 5 -4 10 4 6 9 10 10 10 3 0 -6 8 -12 18 -12 42 0 110 -8 119 -14 6 -4 19
-4 29 0 11 4 15 3 11 -4 -4 -6 0 -14 9 -17 8 -3 12 -2 9 4 -3 6 -1 10 4 10 6
0 11 -4 11 -9 0 -12 33 -9 42 4 4 6 8 0 8 -13 0 -13 4 -20 10 -17 6 3 10 1 10
-4 0 -6 -6 -11 -12 -11 -9 0 -8 -4 2 -10 11 -7 11 -10 2 -10 -10 0 -10 -5 -1
-21 7 -13 7 -19 1 -15 -12 7 -10 -33 3 -53 5 -10 4 -12 -3 -7 -7 4 -12 3 -12
-3 0 -5 4 -12 9 -15 10 -7 9 -25 -2 -43 -4 -6 -3 -14 3 -18 6 -4 7 -12 3 -18
-13 -21 -13 -68 0 -60 8 4 7 1 -1 -9 -9 -11 -10 -18 -2 -23 13 -8 13 -25 -1
-25 -5 0 -7 5 -3 12 4 7 3 8 -4 4 -8 -5 -9 -13 -2 -25 6 -12 5 -22 -3 -31 -9
-10 -9 -11 0 -6 6 3 14 2 17 -3 3 -5 -1 -12 -10 -15 -15 -6 -15 -8 0 -25 15
-16 13 -56 -3 -47 -3 2 -6 -9 -6 -24 0 -15 3 -26 7 -24 4 2 9 0 13 -6 3 -5 -1
-10 -9 -10 -9 0 -16 -5 -16 -11 0 -5 4 -8 9 -5 4 3 8 -8 7 -24 -1 -17 -5 -30
-9 -30 -4 0 -3 -9 3 -20 8 -14 8 -20 0 -20 -7 0 -8 -6 -1 -18 5 -10 6 -24 1
-32 -5 -8 -4 -22 1 -32 7 -13 6 -18 -3 -18 -8 0 -9 -3 -3 -8 13 -9 15 -42 3
-42 -6 0 -6 -5 1 -14 9 -10 8 -15 -4 -20 -8 -3 -15 -11 -14 -18 0 -10 2 -10 6
0 8 20 18 14 18 -13 0 -14 -3 -25 -6 -25 -10 0 -5 -65 6 -72 6 -4 1 -8 -10 -9
l-20 0 20 -9 c11 -5 14 -9 7 -9 -10 -1 -10 -6 -1 -22 8 -15 8 -19 0 -15 -6 4
-11 2 -11 -3 0 -6 6 -11 13 -12 9 0 9 -2 0 -5 -7 -3 -9 -12 -6 -20 3 -8 -1
-22 -8 -31 -8 -9 -9 -14 -3 -10 8 4 12 -10 13 -44 0 -27 -3 -48 -8 -45 -4 3
-8 -1 -8 -9 0 -8 4 -12 8 -10 11 7 5 -99 -6 -107 -6 -5 -5 -11 4 -17 8 -5 10
-14 5 -22 -15 -24 -13 -41 2 -35 10 4 12 2 7 -7 -4 -6 -8 -15 -8 -19 0 -18
-15 -16 -40 7 -15 15 -29 24 -32 21 -3 -2 -13 3 -22 12 -23 22 -57 45 -67 46
-10 1 -35 20 -66 49 -10 9 -22 17 -27 17 -6 0 -22 11 -37 25 -14 13 -30 22
-35 19 -5 -3 -9 0 -9 6 0 6 -4 8 -10 5 -5 -3 -10 1 -10 9 0 9 -11 18 -25 22
-14 3 -25 10 -25 15 0 5 -7 9 -15 9 -8 0 -15 5 -15 10 0 6 -6 10 -14 10 -8 0
-16 7 -20 15 -3 8 -9 15 -13 14 -20 -3 -33 2 -30 13 1 6 -7 14 -17 16 -34 7
-60 41 -62 77 0 19 4 35 10 35 7 0 7 3 1 8 -15 11 -17 30 -4 54 8 15 8 19 0
14 -12 -8 -11 21 2 42 5 6 4 12 -2 12 -8 0 -8 19 -1 40 6 15 4 47 -3 63 -5 11
-3 17 5 18 10 0 10 2 1 5 -8 4 -9 13 -3 30 5 13 6 24 1 24 -9 0 -8 37 2 46 4
4 2 13 -4 20 -7 8 -7 14 1 19 8 5 8 11 -1 21 -8 10 -8 14 0 14 13 0 10 22 -4
32 -7 5 -6 8 0 8 6 0 11 9 12 20 1 13 -2 18 -9 14 -7 -5 -8 -2 -2 7 5 8 10 25
12 37 2 17 -1 22 -10 16 -10 -6 -10 -4 -2 7 7 8 11 56 10 116 -1 57 2 103 6
103 4 0 3 14 -2 30 -6 20 -5 30 2 30 6 0 5 7 -3 17 -10 11 -10 14 -1 9 6 -4
12 -2 12 3 0 6 -5 11 -11 11 -5 0 -7 6 -3 12 12 19 12 48 1 48 -6 0 -6 5 0 13
11 14 11 57 0 75 -5 7 -3 12 3 12 6 0 8 10 6 23 -4 24 15 30 42 13z m4512 1
c0 -5 5 -5 11 -1 8 4 8 1 2 -12 -9 -20 -9 -143 0 -168 3 -8 3 -17 0 -20 -8 -8
-10 -56 -3 -56 8 0 5 -43 -3 -57 -4 -7 -2 -15 4 -19 8 -4 7 -9 -2 -15 -11 -7
-11 -9 1 -9 13 0 13 -1 0 -10 -8 -5 -10 -10 -5 -10 6 0 10 -28 9 -67 -1 -38 3
-76 8 -87 7 -13 7 -16 -1 -12 -7 5 -11 -1 -11 -14 0 -14 4 -19 13 -14 9 6 9 4
2 -7 -11 -15 -13 -124 -3 -135 4 -3 2 -19 -2 -35 -6 -20 -5 -29 3 -30 9 0 9
-2 0 -5 -7 -3 -8 -15 -4 -31 4 -15 4 -48 1 -75 -4 -27 -4 -51 -1 -53 4 -2 6
-51 5 -108 -1 -97 -3 -107 -25 -129 -13 -13 -28 -25 -34 -27 -24 -6 -93 -56
-89 -63 3 -5 2 -7 -3 -6 -16 4 -51 -13 -57 -27 -3 -8 -12 -15 -21 -15 -8 0
-15 -4 -15 -10 0 -5 -6 -10 -12 -10 -7 0 -28 -13 -47 -29 -19 -17 -38 -28 -42
-25 -4 2 -9 -3 -13 -11 -3 -8 -12 -15 -21 -15 -8 0 -15 -4 -15 -9 0 -5 -13
-14 -30 -21 -16 -7 -27 -16 -24 -21 3 -5 -3 -9 -13 -9 -10 0 -31 -11 -46 -25
-15 -14 -27 -22 -27 -18 0 4 -4 3 -8 -4 -4 -6 -16 -13 -27 -15 -16 -2 -19 2
-17 21 3 17 0 21 -10 16 -7 -3 -4 1 6 9 15 12 16 16 5 16 -12 0 -12 2 1 10 9
6 10 10 3 10 -8 0 -9 9 -3 29 7 25 6 29 -8 23 -14 -4 -15 -3 -6 9 6 8 11 23
11 34 0 11 -5 26 -11 34 -8 11 -8 13 1 8 8 -5 11 2 11 22 -1 19 -5 28 -12 24
-6 -4 -5 1 3 10 10 13 11 20 2 31 -8 10 -9 16 -1 21 14 9 13 28 -2 19 -10 -6
-10 -4 0 7 13 14 17 33 4 25 -4 -2 -8 4 -8 14 0 10 4 16 8 14 4 -3 8 0 8 5 0
6 -6 11 -12 11 -10 0 -9 3 1 9 10 6 10 10 1 16 -9 6 -9 10 1 16 12 8 11 11 -1
19 -13 9 -13 10 0 10 13 0 13 1 0 10 -12 8 -12 10 -1 10 11 0 11 3 1 15 -10
12 -10 15 0 15 10 0 10 3 1 14 -7 8 -8 17 -3 20 10 6 9 67 -2 84 -4 7 -1 12 6
12 9 0 9 3 -2 10 -8 5 -10 10 -4 10 6 0 11 7 11 15 0 10 -6 14 -16 10 -12 -5
-11 -2 3 14 12 14 14 21 6 26 -9 6 -9 10 1 16 10 6 11 9 2 9 -7 0 -13 5 -13
11 0 5 6 7 13 3 6 -4 3 3 -8 16 -11 13 -15 20 -8 17 6 -4 14 -3 18 3 3 5 1 10
-6 10 -8 0 -9 3 0 13 6 8 7 17 3 21 -10 11 -9 30 3 38 6 5 6 8 -2 8 -7 0 -13
7 -13 15 0 8 6 15 13 16 10 0 10 2 0 6 -7 2 -13 11 -13 19 0 8 6 14 13 14 8 0
7 4 -3 10 -12 8 -13 13 -3 29 9 15 9 23 -1 37 -15 20 -10 48 6 38 5 -3 4 4 -4
15 -11 18 -11 23 2 31 12 8 12 10 1 10 -7 0 -11 6 -8 15 4 8 2 17 -4 21 -6 4
-4 14 5 29 12 17 13 26 4 31 -7 5 -8 3 -3 -6 5 -8 4 -11 -3 -6 -12 7 -6 31 12
55 8 11 8 13 -1 8 -6 -4 -14 -3 -18 3 -3 5 -2 10 4 10 6 0 8 6 5 14 -3 8 0 25
7 38 11 20 10 21 -3 11 -13 -11 -14 -8 -9 25 5 28 11 36 25 34 13 -2 16 1 10
10 -6 10 -4 10 9 -1 10 -8 17 -9 17 -3 0 6 8 11 18 11 59 2 82 6 82 12 0 4 11
6 25 3 15 -3 25 0 25 8 0 9 3 9 11 1 9 -9 15 -8 26 3 11 11 19 12 28 4 9 -8
15 -8 20 0 3 6 11 8 16 5 5 -4 9 -1 9 6 0 8 5 7 17 -2 14 -12 16 -12 8 0 -6
11 -4 13 8 8 9 -3 19 -2 22 3 4 6 11 10 16 10 6 0 7 -6 3 -12 -6 -10 -5 -10 7
-1 9 7 36 14 61 15 25 2 43 7 40 12 -3 5 2 7 11 3 10 -3 17 -3 17 1 0 4 11 7
25 7 14 0 25 -4 25 -8z m-2240 -4871 c0 -11 -19 -15 -25 -6 -3 5 1 10 9 10 9
0 16 -2 16 -4z"/>
<path d="M6683 7405 c0 -8 4 -12 9 -9 5 3 6 10 3 15 -9 13 -12 11 -12 -6z"/>
<path d="M5013 645 c0 -8 4 -12 9 -9 5 3 6 10 3 15 -9 13 -12 11 -12 -6z"/>
<path d="M4993 595 c0 -8 4 -12 9 -9 5 3 6 10 3 15 -9 13 -12 11 -12 -6z"/>
<path d="M5016 583 c-6 -14 -5 -15 5 -6 7 7 10 15 7 18 -3 3 -9 -2 -12 -12z"/>
<path d="M4996 557 c3 -10 9 -15 12 -12 3 3 0 11 -7 18 -10 9 -11 8 -5 -6z"/>
<path d="M4996 518 c3 -4 11 -5 19 -1 21 7 19 12 -4 10 -11 0 -18 -5 -15 -9z"/>
</g>
</svg>
