<?xml version="1.0" standalone="no"?>
<!DOCTYPE svg PUBLIC "-//W3C//DTD SVG 20010904//EN"
 "http://www.w3.org/TR/2001/REC-SVG-20010904/DTD/svg10.dtd">
<svg version="1.0" xmlns="http://www.w3.org/2000/svg"
 width="225.000000pt" height="225.000000pt" viewBox="0 0 225.000000 225.000000"
 preserveAspectRatio="xMidYMid meet">
<metadata>
Created by potrace 1.11, written by Peter Selinger 2001-2013
</metadata>
<g transform="translate(0.000000,225.000000) scale(0.100000,-0.100000)"
fill="#000000" stroke="none">
<path d="M1030 2231 c-43 -23 -140 -53 -140 -43 0 4 -4 2 -8 -4 -5 -9 -414
-148 -465 -158 -7 -2 -19 -6 -27 -9 -8 -4 -58 -20 -110 -37 -52 -17 -104 -35
-115 -40 -11 -5 -29 -10 -40 -12 -18 -3 -20 -13 -25 -123 -3 -66 -3 -396 0
-733 l5 -613 115 -54 c63 -29 241 -111 395 -181 154 -70 327 -149 385 -176 58
-26 110 -48 115 -48 11 0 150 60 305 132 279 129 371 169 381 162 7 -4 9 -3 6
3 -4 6 13 18 36 28 23 10 85 38 137 63 52 24 112 51 133 59 l37 15 0 729 0
729 -27 6 c-44 10 -256 83 -275 94 -10 5 -26 10 -35 10 -10 0 -52 13 -93 30
-41 16 -84 30 -95 30 -11 0 -40 10 -65 22 -25 11 -52 22 -60 23 -8 1 -37 9
-63 18 -26 10 -54 17 -62 17 -8 0 -15 4 -15 8 0 4 -8 8 -18 9 -24 2 -145 44
-156 54 -18 16 -119 9 -156 -10z"/>
</g>
</svg>
